<?xml version="1.0" encoding="UTF-8"?>
<!DOCTYPE svg PUBLIC "-//W3C//DTD SVG 1.1//EN" "http://www.w3.org/Graphics/SVG/1.1/DTD/svg11.dtd">
<svg xmlns="http://www.w3.org/2000/svg" version="1.1" width="479px" height="139px" style="shape-rendering:geometricPrecision; text-rendering:geometricPrecision; image-rendering:optimizeQuality; fill-rule:evenodd; clip-rule:evenodd" xmlns:xlink="http://www.w3.org/1999/xlink">
<g><path style="opacity:1" fill="#f5f5f6" d="M 50.5,-0.5 C 76.8333,-0.5 103.167,-0.5 129.5,-0.5C 129.5,2.83333 129.5,6.16667 129.5,9.5C 124.833,9.5 120.167,9.5 115.5,9.5C 115.5,13.8333 115.5,18.1667 115.5,22.5C 111.5,22.5 107.5,22.5 103.5,22.5C 103.5,18.1667 103.5,13.8333 103.5,9.5C 98.8333,9.5 94.1667,9.5 89.5,9.5C 85.5,9.5 81.5,9.5 77.5,9.5C 77.8182,14.0323 77.4849,18.3656 76.5,22.5C 74.7839,22.3713 73.1172,22.038 71.5,21.5C 68.9039,20.7347 66.2372,20.4013 63.5,20.5C 63.5,20.1667 63.5,19.8333 63.5,19.5C 63.5,16.1667 63.5,12.8333 63.5,9.5C 59.1667,9.5 54.8333,9.5 50.5,9.5C 50.5,6.16667 50.5,2.83333 50.5,-0.5 Z"/></g>
<g><path style="opacity:1" fill="#f7f7f7" d="M 129.5,-0.5 C 238.5,-0.5 347.5,-0.5 456.5,-0.5C 456.5,2.83333 456.5,6.16667 456.5,9.5C 452.5,9.5 448.5,9.5 444.5,9.5C 444.5,14.1667 444.5,18.8333 444.5,23.5C 439.833,23.5 435.167,23.5 430.5,23.5C 431.01,26.3878 430.344,28.7211 428.5,30.5C 427.5,30.5 426.5,30.5 425.5,30.5C 423.393,29.5318 421.059,29.1984 418.5,29.5C 418.5,27.5 418.5,25.5 418.5,23.5C 413.833,23.5 409.167,23.5 404.5,23.5C 404.5,25.1667 404.5,26.8333 404.5,28.5C 402.143,28.3367 399.81,28.5034 397.5,29C 396.944,29.3826 396.611,29.8826 396.5,30.5C 395.778,30.9175 395.278,31.5842 395,32.5C 394.5,42.1609 394.334,51.8276 394.5,61.5C 393.517,74.6621 392.85,87.9954 392.5,101.5C 396.5,101.5 400.5,101.5 404.5,101.5C 404.5,105.833 404.5,110.167 404.5,114.5C 400.5,114.5 396.5,114.5 392.5,114.5C 392.635,116.554 391.968,118.221 390.5,119.5C 388.393,120.468 386.059,120.802 383.5,120.5C 381.833,120.5 380.167,120.5 378.5,120.5C 378.5,118.5 378.5,116.5 378.5,114.5C 382.514,114.666 386.514,114.499 390.5,114C 391.464,109.934 391.797,105.767 391.5,101.5C 387.167,101.5 382.833,101.5 378.5,101.5C 378.5,98.8333 378.5,96.1667 378.5,93.5C 380.027,93.573 381.027,92.9063 381.5,91.5C 382.345,90.3285 383.011,88.9952 383.5,87.5C 386.167,87.5 388.833,87.5 391.5,87.5C 391.5,83.5 391.5,79.5 391.5,75.5C 387.167,75.5 382.833,75.5 378.5,75.5C 378.5,73.1667 378.5,70.8333 378.5,68.5C 378.5,67.8333 378.5,67.1667 378.5,66.5C 378.833,66.5 379.167,66.5 379.5,66.5C 380.451,65.0813 380.784,63.4147 380.5,61.5C 384.167,61.5 387.833,61.5 391.5,61.5C 391.5,57.5 391.5,53.5 391.5,49.5C 387.167,49.5 382.833,49.5 378.5,49.5C 378.5,47.5 378.5,45.5 378.5,43.5C 379.492,43.6716 380.158,43.3382 380.5,42.5C 380.5,42.1667 380.5,41.8333 380.5,41.5C 380.833,41.5 381.167,41.5 381.5,41.5C 383.28,40.0101 383.946,38.0101 383.5,35.5C 386.167,35.5 388.833,35.5 391.5,35.5C 391.5,31.5 391.5,27.5 391.5,23.5C 387.167,23.5 382.833,23.5 378.5,23.5C 378.5,25.1667 378.5,26.8333 378.5,28.5C 374.167,28.5 369.833,28.5 365.5,28.5C 365.5,26.8333 365.5,25.1667 365.5,23.5C 361.167,23.5 356.833,23.5 352.5,23.5C 352.5,25.1667 352.5,26.8333 352.5,28.5C 348.167,28.5 343.833,28.5 339.5,28.5C 339.5,26.8333 339.5,25.1667 339.5,23.5C 334.833,23.5 330.167,23.5 325.5,23.5C 325.5,27.5 325.5,31.5 325.5,35.5C 323.167,35.5 320.833,35.5 318.5,35.5C 318.5,34.1667 317.833,33.5 316.5,33.5C 316.167,32.8333 315.833,32.1667 315.5,31.5C 311.354,30.353 307.02,30.1864 302.5,31C 300.482,33.8887 299.149,37.0554 298.5,40.5C 295.803,44.8853 293.469,49.552 291.5,54.5C 290.167,56.1667 288.833,57.8333 287.5,59.5C 286.521,56.3752 286.187,53.0419 286.5,49.5C 282.167,49.5 277.833,49.5 273.5,49.5C 273.5,44.8333 273.5,40.1667 273.5,35.5C 270.833,35.5 268.167,35.5 265.5,35.5C 265.068,34.2905 264.401,33.2905 263.5,32.5C 263.389,31.8826 263.056,31.3826 262.5,31C 258.973,30.1925 255.64,30.3592 252.5,31.5C 251.069,31.8807 250.236,32.8807 250,34.5C 249.501,39.4889 249.334,44.4889 249.5,49.5C 249.5,52.8333 249.5,56.1667 249.5,59.5C 248.167,69.1667 248.167,78.8333 249.5,88.5C 249.427,90.0269 250.094,91.0269 251.5,91.5C 251.833,92.5 252.5,93.1667 253.5,93.5C 253.917,94.1239 254.584,94.4573 255.5,94.5C 257.136,93.6961 258.636,92.6961 260,91.5C 260.498,94.8168 260.665,98.1501 260.5,101.5C 264.833,101.5 269.167,101.5 273.5,101.5C 273.5,105.5 273.5,109.5 273.5,113.5C 269.19,112.92 264.857,112.586 260.5,112.5C 258.611,111.678 256.611,110.845 254.5,110C 247.836,109.389 241.17,108.889 234.5,108.5C 234.5,106.167 234.5,103.833 234.5,101.5C 229.833,101.5 225.167,101.5 220.5,101.5C 220.5,97.1667 220.5,92.8333 220.5,88.5C 225.07,87.559 229.737,87.2256 234.5,87.5C 234.5,83.5 234.5,79.5 234.5,75.5C 238.5,75.5 242.5,75.5 246.5,75.5C 246.5,70.8333 246.5,66.1667 246.5,61.5C 242.5,61.5 238.5,61.5 234.5,61.5C 234.5,57.5 234.5,53.5 234.5,49.5C 238.5,49.5 242.5,49.5 246.5,49.5C 246.5,44.8333 246.5,40.1667 246.5,35.5C 244.833,35.5 243.167,35.5 241.5,35.5C 242.265,30.0936 239.931,28.0936 234.5,29.5C 234.5,27.5 234.5,25.5 234.5,23.5C 229.833,23.5 225.167,23.5 220.5,23.5C 220.5,27.5 220.5,31.5 220.5,35.5C 216.5,35.5 212.5,35.5 208.5,35.5C 208.5,31.5 208.5,27.5 208.5,23.5C 203.833,23.5 199.167,23.5 194.5,23.5C 194.5,25.1667 194.5,26.8333 194.5,28.5C 191.918,28.0254 189.918,28.6921 188.5,30.5C 186.744,31.5521 186.077,33.2188 186.5,35.5C 185.167,35.5 183.833,35.5 182.5,35.5C 182.5,40.1667 182.5,44.8333 182.5,49.5C 186.5,49.5 190.5,49.5 194.5,49.5C 194.5,53.5 194.5,57.5 194.5,61.5C 197.902,61.3424 201.236,61.6758 204.5,62.5C 206.173,63.343 207.34,64.6763 208,66.5C 208.5,74.4931 208.666,82.4931 208.5,90.5C 208.5,94.1667 208.5,97.8333 208.5,101.5C 203.833,101.5 199.167,101.5 194.5,101.5C 194.5,97.1667 194.5,92.8333 194.5,88.5C 190.5,88.5 186.5,88.5 182.5,88.5C 182.5,92.5 182.5,96.5 182.5,100.5C 177.5,100.5 172.5,100.5 167.5,100.5C 167.167,100.5 166.833,100.5 166.5,100.5C 163.003,99.5975 159.337,98.9309 155.5,98.5C 155.335,95.4816 155.502,92.4816 156,89.5C 158.719,88.5562 161.552,88.2229 164.5,88.5C 164.5,84.1667 164.5,79.8333 164.5,75.5C 165.167,80.1667 165.833,84.8333 166.5,89.5C 166.5,91.5 167.5,92.5 169.5,92.5C 171.895,93.8143 174.395,93.8143 177,92.5C 177.5,75.5033 177.667,58.5033 177.5,41.5C 177.5,41.1667 177.5,40.8333 177.5,40.5C 178.634,38.0336 178.801,35.367 178,32.5C 177.617,31.944 177.117,31.6107 176.5,31.5C 173.435,30.1816 170.269,30.1816 167,31.5C 165.621,36.036 165.121,40.7027 165.5,45.5C 165.5,49.1667 165.5,52.8333 165.5,56.5C 165.167,56.5 164.833,56.5 164.5,56.5C 155.5,56.5 146.5,56.5 137.5,56.5C 137.199,47.8478 136.199,39.5145 134.5,31.5C 134.158,30.6618 133.492,30.3284 132.5,30.5C 131.791,29.596 130.791,29.2627 129.5,29.5C 129.5,27.5 129.5,25.5 129.5,23.5C 124.833,23.5 120.167,23.5 115.5,23.5C 115.5,27.5 115.5,31.5 115.5,35.5C 111.5,35.5 107.5,35.5 103.5,35.5C 103.5,31.5 103.5,27.5 103.5,23.5C 95.5803,23.185 87.747,23.5183 80,24.5C 79.5,24 79,23.5 78.5,23C 82.1516,22.5014 85.8183,22.3347 89.5,22.5C 89.5,18.1667 89.5,13.8333 89.5,9.5C 94.1667,9.5 98.8333,9.5 103.5,9.5C 103.5,13.8333 103.5,18.1667 103.5,22.5C 107.5,22.5 111.5,22.5 115.5,22.5C 115.5,18.1667 115.5,13.8333 115.5,9.5C 120.167,9.5 124.833,9.5 129.5,9.5C 129.5,6.16667 129.5,2.83333 129.5,-0.5 Z"/></g>
<g><path style="opacity:1" fill="#f8f8f8" d="M -0.5,-0.5 C 11.8333,-0.5 24.1667,-0.5 36.5,-0.5C 36.5,2.83333 36.5,6.16667 36.5,9.5C 32.5,9.5 28.5,9.5 24.5,9.5C 24.5,13.8333 24.5,18.1667 24.5,22.5C 26.099,22.2322 27.4324,22.5655 28.5,23.5C 28.0269,24.9063 27.0269,25.573 25.5,25.5C 20.807,23.6402 15.807,22.9735 10.5,23.5C 10.5,27.5 10.5,31.5 10.5,35.5C 6.83333,35.5 3.16667,35.5 -0.5,35.5C -0.5,23.5 -0.5,11.5 -0.5,-0.5 Z"/></g>
<g><path style="opacity:1" fill="#f0f1f2" d="M 36.5,-0.5 C 41.1667,-0.5 45.8333,-0.5 50.5,-0.5C 50.5,2.83333 50.5,6.16667 50.5,9.5C 54.8333,9.5 59.1667,9.5 63.5,9.5C 63.5,12.8333 63.5,16.1667 63.5,19.5C 51.5254,18.7401 39.8587,20.0735 28.5,23.5C 27.4324,22.5655 26.099,22.2322 24.5,22.5C 24.5,18.1667 24.5,13.8333 24.5,9.5C 28.5,9.5 32.5,9.5 36.5,9.5C 36.5,6.16667 36.5,2.83333 36.5,-0.5 Z"/></g>
<g><path style="opacity:1" fill="#f8f8f8" d="M 470.5,-0.5 C 473.167,-0.5 475.833,-0.5 478.5,-0.5C 478.5,28.8333 478.5,58.1667 478.5,87.5C 475.833,87.5 473.167,87.5 470.5,87.5C 470.5,83.5 470.5,79.5 470.5,75.5C 466.167,75.5 461.833,75.5 457.5,75.5C 457.5,70.8333 457.5,66.1667 457.5,61.5C 461.833,61.5 466.167,61.5 470.5,61.5C 470.5,57.5 470.5,53.5 470.5,49.5C 466.167,49.5 461.833,49.5 457.5,49.5C 457.5,44.5 457.5,39.5 457.5,34.5C 463.465,30.0521 463.798,25.3854 458.5,20.5C 457.656,16.9009 457.323,13.2343 457.5,9.5C 461.833,9.5 466.167,9.5 470.5,9.5C 470.5,6.16667 470.5,2.83333 470.5,-0.5 Z"/></g>
<g><path style="opacity:1" fill="#2c77a3" d="M 63.5,20.5 C 66.2372,20.4013 68.9039,20.7347 71.5,21.5C 71.5,21.8333 71.5,22.1667 71.5,22.5C 64.358,21.262 57.358,21.262 50.5,22.5C 46.0051,23.4219 41.3384,24.0886 36.5,24.5C 36.5774,23.2502 37.244,22.4169 38.5,22C 46.8074,21.0256 55.1407,20.5256 63.5,20.5 Z"/></g>
<g><path style="opacity:1" fill="#5ea4c0" d="M 63.5,19.5 C 63.5,19.8333 63.5,20.1667 63.5,20.5C 55.1407,20.5256 46.8074,21.0256 38.5,22C 37.244,22.4169 36.5774,23.2502 36.5,24.5C 33.4569,25.3448 30.4569,26.3448 27.5,27.5C 26.1667,27.5 24.8333,27.5 23.5,27.5C 24.1667,26.8333 24.8333,26.1667 25.5,25.5C 27.0269,25.573 28.0269,24.9063 28.5,23.5C 39.8587,20.0735 51.5254,18.7401 63.5,19.5 Z"/></g>
<g><path style="opacity:1" fill="#8aaabf" d="M 71.5,22.5 C 71.5,22.1667 71.5,21.8333 71.5,21.5C 73.1172,22.038 74.7839,22.3713 76.5,22.5C 76.8333,23.1667 77.1667,23.8333 77.5,24.5C 75.4214,24.0293 73.4214,23.3627 71.5,22.5 Z"/></g>
<g><path style="opacity:1" fill="#ecedee" d="M 89.5,9.5 C 89.5,13.8333 89.5,18.1667 89.5,22.5C 85.8183,22.3347 82.1516,22.5014 78.5,23C 79,23.5 79.5,24 80,24.5C 87.747,23.5183 95.5803,23.185 103.5,23.5C 103.5,27.5 103.5,31.5 103.5,35.5C 107.5,35.5 111.5,35.5 115.5,35.5C 115.5,40.1667 115.5,44.8333 115.5,49.5C 111.029,48.9106 107.029,49.5772 103.5,51.5C 103.167,51.5 102.833,51.5 102.5,51.5C 101.711,45.4405 99.0442,40.4405 94.5,36.5C 91.6007,32.0801 87.6007,29.0801 82.5,27.5C 81.0351,26.2632 79.3684,25.2632 77.5,24.5C 77.1667,23.8333 76.8333,23.1667 76.5,22.5C 77.4849,18.3656 77.8182,14.0323 77.5,9.5C 81.5,9.5 85.5,9.5 89.5,9.5 Z"/></g>
<g><path style="opacity:1" fill="#eaebec" d="M 132.5,30.5 C 130.143,30.3367 127.81,30.5034 125.5,31C 124.944,31.3826 124.611,31.8826 124.5,32.5C 123.176,50.5978 123.176,68.5978 124.5,86.5C 124.5,87.1667 124.5,87.8333 124.5,88.5C 121.609,87.5975 118.609,87.2641 115.5,87.5C 115.5,83.5 115.5,79.5 115.5,75.5C 117.833,75.5 120.167,75.5 122.5,75.5C 122.5,62.1667 122.5,48.8333 122.5,35.5C 120.167,35.5 117.833,35.5 115.5,35.5C 115.5,31.5 115.5,27.5 115.5,23.5C 120.167,23.5 124.833,23.5 129.5,23.5C 129.5,25.5 129.5,27.5 129.5,29.5C 130.791,29.2627 131.791,29.596 132.5,30.5 Z"/></g>
<g><path style="opacity:1" fill="#e3e6e9" d="M 425.5,30.5 C 415.833,30.5 406.167,30.5 396.5,30.5C 396.611,29.8826 396.944,29.3826 397.5,29C 399.81,28.5034 402.143,28.3367 404.5,28.5C 404.5,26.8333 404.5,25.1667 404.5,23.5C 409.167,23.5 413.833,23.5 418.5,23.5C 418.5,25.5 418.5,27.5 418.5,29.5C 421.059,29.1984 423.393,29.5318 425.5,30.5 Z"/></g>
<g><path style="opacity:1" fill="#dfe2e8" d="M 456.5,20.5 C 456.5,20.8333 456.5,21.1667 456.5,21.5C 451.094,20.7353 449.094,23.0687 450.5,28.5C 450.821,30.0481 451.821,30.7148 453.5,30.5C 455.093,29.6521 456.26,28.3187 457,26.5C 457.483,25.552 457.649,24.552 457.5,23.5C 458.725,24.1522 459.392,25.3189 459.5,27C 458.028,32.3213 454.695,33.8213 449.5,31.5C 445.704,23.9594 448.038,20.2928 456.5,20.5 Z"/></g>
<g><path style="opacity:1" fill="#1b5481" d="M 50.5,22.5 C 57.358,21.262 64.358,21.262 71.5,22.5C 73.4214,23.3627 75.4214,24.0293 77.5,24.5C 79.3684,25.2632 81.0351,26.2632 82.5,27.5C 81.5,27.5 80.5,27.5 79.5,27.5C 74.6133,26.0854 69.6133,24.752 64.5,23.5C 60.03,22.5139 55.3633,22.1805 50.5,22.5 Z"/></g>
<g><path style="opacity:1" fill="#526181" d="M 456.5,21.5 C 456.833,22.1667 457.167,22.8333 457.5,23.5C 457.649,24.552 457.483,25.552 457,26.5C 456.26,28.3187 455.093,29.6521 453.5,30.5C 454.575,28.1445 454.575,25.8111 453.5,23.5C 452.935,25.5435 451.935,27.2102 450.5,28.5C 449.094,23.0687 451.094,20.7353 456.5,21.5 Z"/></g>
<g><path style="opacity:1" fill="#8e98a8" d="M 456.5,20.5 C 456.833,20.5 457.167,20.5 457.5,20.5C 457.833,20.5 458.167,20.5 458.5,20.5C 463.798,25.3854 463.465,30.0521 457.5,34.5C 456.5,34.5 455.5,34.5 454.5,34.5C 452.265,34.7947 450.265,34.4614 448.5,33.5C 449.338,33.1583 449.672,32.4916 449.5,31.5C 454.695,33.8213 458.028,32.3213 459.5,27C 459.392,25.3189 458.725,24.1522 457.5,23.5C 457.167,22.8333 456.833,22.1667 456.5,21.5C 456.5,21.1667 456.5,20.8333 456.5,20.5 Z"/></g>
<g><path style="opacity:1" fill="#a5aebe" d="M 453.5,30.5 C 451.821,30.7148 450.821,30.0481 450.5,28.5C 451.935,27.2102 452.935,25.5435 453.5,23.5C 454.575,25.8111 454.575,28.1445 453.5,30.5 Z"/></g>
<g><path style="opacity:1" fill="#66738e" d="M 457.5,20.5 C 457.167,20.5 456.833,20.5 456.5,20.5C 448.038,20.2928 445.704,23.9594 449.5,31.5C 449.672,32.4916 449.338,33.1583 448.5,33.5C 444.244,28.3769 444.577,23.5435 449.5,19C 451.833,18.3333 454.167,18.3333 456.5,19C 457.056,19.3826 457.389,19.8826 457.5,20.5 Z"/></g>
<g><path style="opacity:1" fill="#d0d5da" d="M 51.5,26.5 C 50.701,29.4299 50.3677,32.4299 50.5,35.5C 47.0886,34.933 45.0886,36.2663 44.5,39.5C 44.523,37.0733 45.023,34.74 46,32.5C 47.6494,31.1155 48.8161,29.4488 49.5,27.5C 50.1667,27.1667 50.8333,26.8333 51.5,26.5 Z"/></g>
<g><path style="opacity:1" fill="#0e274e" d="M 79.5,27.5 C 80.5,27.5 81.5,27.5 82.5,27.5C 87.6007,29.0801 91.6007,32.0801 94.5,36.5C 94.2089,37.6491 93.3756,38.3158 92,38.5C 91.1667,38.3333 90.3333,38.1667 89.5,38C 86.6092,33.9457 83.2759,30.4457 79.5,27.5 Z"/></g>
<g><path style="opacity:1" fill="#6e8eaa" d="M 176.5,31.5 C 173.813,31.3359 171.146,31.5026 168.5,32C 167.663,33.0113 167.33,34.1779 167.5,35.5C 166.833,38.8333 166.167,42.1667 165.5,45.5C 165.121,40.7027 165.621,36.036 167,31.5C 170.269,30.1816 173.435,30.1816 176.5,31.5 Z"/></g>
<g><path style="opacity:1" fill="#6381a1" d="M 315.5,31.5 C 311.429,31.2338 307.429,31.5672 303.5,32.5C 302.823,35.8673 301.157,38.534 298.5,40.5C 299.149,37.0554 300.482,33.8887 302.5,31C 307.02,30.1864 311.354,30.353 315.5,31.5 Z"/></g>
<g><path style="opacity:1" fill="#6c88af" d="M 132.5,30.5 C 133.492,30.3284 134.158,30.6618 134.5,31.5C 134.167,31.5 133.833,31.5 133.5,31.5C 130.721,31.2786 128.054,31.612 125.5,32.5C 125.167,32.5 124.833,32.5 124.5,32.5C 124.611,31.8826 124.944,31.3826 125.5,31C 127.81,30.5034 130.143,30.3367 132.5,30.5 Z"/></g>
<g><path style="opacity:1" fill="#4b668a" d="M 396.5,30.5 C 406.167,30.5 415.833,30.5 425.5,30.5C 426.5,30.5 427.5,30.5 428.5,30.5C 429.5,31.1667 430.5,31.8333 431.5,32.5C 430.167,32.5 428.833,32.5 427.5,32.5C 417.167,32.5 406.833,32.5 396.5,32.5C 396.5,34.5 396.5,36.5 396.5,38.5C 396.5,45.8333 396.5,53.1667 396.5,60.5C 395.527,70.0838 395.194,79.7504 395.5,89.5C 394.506,80.3483 394.173,71.015 394.5,61.5C 394.334,51.8276 394.5,42.1609 395,32.5C 395.278,31.5842 395.778,30.9175 396.5,30.5 Z"/></g>
<g><path style="opacity:1" fill="#78b8d4" d="M 23.5,27.5 C 18.8594,31.8052 14.1927,36.1386 9.5,40.5C 12.885,34.7815 17.5517,30.4481 23.5,27.5 Z"/></g>
<g><path style="opacity:1" fill="#395b8f" d="M 188.5,30.5 C 191.85,30.335 195.183,30.5017 198.5,31C 199.252,31.6708 199.586,32.5041 199.5,33.5C 195.351,32.9197 191.684,33.5864 188.5,35.5C 187.28,33.9504 187.28,32.2837 188.5,30.5 Z"/></g>
<g><path style="opacity:1" fill="#f6f6f6" d="M 454.5,34.5 C 455.5,34.5 456.5,34.5 457.5,34.5C 457.5,39.5 457.5,44.5 457.5,49.5C 461.833,49.5 466.167,49.5 470.5,49.5C 470.5,53.5 470.5,57.5 470.5,61.5C 466.167,61.5 461.833,61.5 457.5,61.5C 457.5,66.1667 457.5,70.8333 457.5,75.5C 461.833,75.5 466.167,75.5 470.5,75.5C 470.5,79.5 470.5,83.5 470.5,87.5C 473.167,87.5 475.833,87.5 478.5,87.5C 478.5,104.5 478.5,121.5 478.5,138.5C 449.5,138.5 420.5,138.5 391.5,138.5C 391.5,135.167 391.5,131.833 391.5,128.5C 393.74,127.425 398.073,127.092 404.5,127.5C 404.5,125.833 404.5,124.167 404.5,122.5C 405.5,122.167 406.167,121.5 406.5,120.5C 408.153,120.34 409.486,119.674 410.5,118.5C 412.292,118.634 413.958,118.301 415.5,117.5C 416.5,117.5 417.5,117.5 418.5,117.5C 418.5,120.833 418.5,124.167 418.5,127.5C 422.5,127.5 426.5,127.5 430.5,127.5C 430.5,123.167 430.5,118.833 430.5,114.5C 435.167,114.5 439.833,114.5 444.5,114.5C 444.5,110.167 444.5,105.833 444.5,101.5C 439.833,101.5 435.167,101.5 430.5,101.5C 430.5,98.5 430.5,95.5 430.5,92.5C 430.833,91.8333 431.167,91.1667 431.5,90.5C 431.833,90.5 432.167,90.5 432.5,90.5C 435.619,89.6827 438.619,88.6827 441.5,87.5C 441.5,86.5 441.5,85.5 441.5,84.5C 449.84,75.2192 453.174,64.2192 451.5,51.5C 452.552,49.744 454.219,49.0773 456.5,49.5C 457.026,44.193 456.36,39.193 454.5,34.5 Z"/></g>
<g><path style="opacity:1" fill="#eaebed" d="M 25.5,25.5 C 24.8333,26.1667 24.1667,26.8333 23.5,27.5C 17.5517,30.4481 12.885,34.7815 9.5,40.5C 8.54163,40.9528 7.7083,41.6195 7,42.5C 5.48928,45.7961 4.32261,49.1294 3.5,52.5C 3.18178,57.0323 3.51511,61.3656 4.5,65.5C 4.32572,69.3598 5.65905,72.3598 8.5,74.5C 8.73286,76.0618 9.39952,77.3951 10.5,78.5C 9.5,78.5 8.5,78.5 7.5,78.5C 7.5,77.5 7.5,76.5 7.5,75.5C 4.83333,75.5 2.16667,75.5 -0.5,75.5C -0.5,62.1667 -0.5,48.8333 -0.5,35.5C 3.16667,35.5 6.83333,35.5 10.5,35.5C 10.5,31.5 10.5,27.5 10.5,23.5C 15.807,22.9735 20.807,23.6402 25.5,25.5 Z"/></g>
<g><path style="opacity:1" fill="#f0f0f1" d="M 81.5,39.5 C 76.289,43.0164 70.9557,46.3498 65.5,49.5C 64.1667,49.8333 62.8333,50.1667 61.5,50.5C 58.8427,50.9348 56.5093,51.9348 54.5,53.5C 50.1313,55.2354 46.1313,54.5687 42.5,51.5C 42.5524,47.8019 42.8857,44.1352 43.5,40.5C 44.1667,40.5 44.5,40.1667 44.5,39.5C 45.0886,36.2663 47.0886,34.933 50.5,35.5C 50.3677,32.4299 50.701,29.4299 51.5,26.5C 63.1237,24.3889 73.7903,26.8889 83.5,34C 85.0368,35.1096 85.7035,36.6096 85.5,38.5C 84.0413,38.4326 82.7079,38.7659 81.5,39.5 Z"/></g>
<g><path style="opacity:1" fill="#13223f" d="M 64.5,23.5 C 69.6133,24.752 74.6133,26.0854 79.5,27.5C 83.2759,30.4457 86.6092,33.9457 89.5,38C 90.3333,38.1667 91.1667,38.3333 92,38.5C 93.3756,38.3158 94.2089,37.6491 94.5,36.5C 99.0442,40.4405 101.711,45.4405 102.5,51.5C 102.5,54.8333 102.5,58.1667 102.5,61.5C 101.076,63.5145 100.41,65.8478 100.5,68.5C 99.5987,69.2905 98.9321,70.2905 98.5,71.5C 96.8763,73.1368 95.8763,72.8034 95.5,70.5C 95.8457,69.1508 96.179,67.8175 96.5,66.5C 96.6662,60.1579 96.4995,53.8246 96,47.5C 94.9586,45.4148 93.4586,43.7481 91.5,42.5C 91.1667,42.8333 90.8333,43.1667 90.5,43.5C 88.4433,47.2006 86.4433,50.8673 84.5,54.5C 82.8009,56.5664 81.4676,58.8997 80.5,61.5C 79.8333,61.5 79.5,61.8333 79.5,62.5C 76.8373,64.0572 74.8373,63.3905 73.5,60.5C 74.8983,55.2592 76.065,50.2592 77,45.5C 78,44.1667 79,44.1667 80,45.5C 81.9045,44.842 83.4045,43.6753 84.5,42C 83.0577,41.6232 82.0577,40.7899 81.5,39.5C 82.7079,38.7659 84.0413,38.4326 85.5,38.5C 85.7035,36.6096 85.0368,35.1096 83.5,34C 73.7903,26.8889 63.1237,24.3889 51.5,26.5C 50.8333,26.8333 50.1667,27.1667 49.5,27.5C 48.4019,26.603 48.4019,25.7697 49.5,25C 54.496,24.3893 59.496,23.8893 64.5,23.5 Z"/></g>
<g><path style="opacity:1" fill="#b0bac5" d="M 134.5,31.5 C 136.199,39.5145 137.199,47.8478 137.5,56.5C 135.801,48.4855 134.801,40.1522 134.5,31.5 Z"/></g>
<g><path style="opacity:1" fill="#2d598b" d="M 176.5,31.5 C 177.117,31.6107 177.617,31.944 178,32.5C 178.801,35.367 178.634,38.0336 177.5,40.5C 177.808,38.076 177.474,35.7427 176.5,33.5C 174.889,34.3202 174.222,35.6536 174.5,37.5C 172.173,37.2471 170.173,37.9137 168.5,39.5C 167.571,38.3112 167.238,36.9778 167.5,35.5C 167.33,34.1779 167.663,33.0113 168.5,32C 171.146,31.5026 173.813,31.3359 176.5,31.5 Z"/></g>
<g><path style="opacity:1" fill="#e4e5e7" d="M 188.5,30.5 C 187.28,32.2837 187.28,33.9504 188.5,35.5C 194.261,43.9226 199.595,52.5893 204.5,61.5C 204.5,61.8333 204.5,62.1667 204.5,62.5C 201.236,61.6758 197.902,61.3424 194.5,61.5C 194.5,57.5 194.5,53.5 194.5,49.5C 190.5,49.5 186.5,49.5 182.5,49.5C 182.5,44.8333 182.5,40.1667 182.5,35.5C 183.833,35.5 185.167,35.5 186.5,35.5C 186.077,33.2188 186.744,31.5521 188.5,30.5 Z"/></g>
<g><path style="opacity:1" fill="#0f336a" d="M 199.5,33.5 C 200.906,33.9731 201.573,34.9731 201.5,36.5C 202.219,38.7638 202.552,41.0971 202.5,43.5C 200.801,43.6602 199.134,43.4935 197.5,43C 193.654,41.3049 190.654,38.8049 188.5,35.5C 191.684,33.5864 195.351,32.9197 199.5,33.5 Z"/></g>
<g><path style="opacity:1" fill="#eaeced" d="M 234.5,61.5 C 230.915,61.1524 227.582,61.819 224.5,63.5C 226.102,59.9046 228.102,56.5712 230.5,53.5C 233.756,48.245 236.923,42.9116 240,37.5C 240.789,35.2884 240.622,33.2884 239.5,31.5C 236.36,30.3592 233.027,30.1925 229.5,31C 226.208,35.233 224.208,40.0664 223.5,45.5C 221.272,48.272 219.272,51.272 217.5,54.5C 216.476,55.8532 215.143,56.5198 213.5,56.5C 213.727,54.0672 212.727,52.4006 210.5,51.5C 208.048,46.108 205.048,41.108 201.5,36.5C 201.573,34.9731 200.906,33.9731 199.5,33.5C 199.586,32.5041 199.252,31.6708 198.5,31C 195.183,30.5017 191.85,30.335 188.5,30.5C 189.918,28.6921 191.918,28.0254 194.5,28.5C 194.5,26.8333 194.5,25.1667 194.5,23.5C 199.167,23.5 203.833,23.5 208.5,23.5C 208.5,27.5 208.5,31.5 208.5,35.5C 212.5,35.5 216.5,35.5 220.5,35.5C 220.5,31.5 220.5,27.5 220.5,23.5C 225.167,23.5 229.833,23.5 234.5,23.5C 234.5,25.5 234.5,27.5 234.5,29.5C 239.931,28.0936 242.265,30.0936 241.5,35.5C 243.167,35.5 244.833,35.5 246.5,35.5C 246.5,40.1667 246.5,44.8333 246.5,49.5C 242.5,49.5 238.5,49.5 234.5,49.5C 234.5,53.5 234.5,57.5 234.5,61.5 Z"/></g>
<g><path style="opacity:1" fill="#5c81a5" d="M 239.5,31.5 C 238.833,31.5 238.167,31.5 237.5,31.5C 234.794,31.5751 232.127,31.9084 229.5,32.5C 227.654,35.8806 226.654,39.5473 226.5,43.5C 225.5,44.1667 224.5,44.8333 223.5,45.5C 224.208,40.0664 226.208,35.233 229.5,31C 233.027,30.1925 236.36,30.3592 239.5,31.5 Z"/></g>
<g><path style="opacity:1" fill="#052f68" d="M 427.5,32.5 C 428.708,35.0442 430.708,36.3775 433.5,36.5C 433.843,38.4832 433.176,39.8166 431.5,40.5C 422.887,39.5579 414.221,39.2246 405.5,39.5C 403.08,39.2924 400.747,39.6258 398.5,40.5C 397.818,39.7573 397.151,39.0906 396.5,38.5C 396.5,36.5 396.5,34.5 396.5,32.5C 406.833,32.5 417.167,32.5 427.5,32.5 Z"/></g>
<g><path style="opacity:1" fill="#eaebec" d="M 456.5,-0.5 C 461.167,-0.5 465.833,-0.5 470.5,-0.5C 470.5,2.83333 470.5,6.16667 470.5,9.5C 466.167,9.5 461.833,9.5 457.5,9.5C 457.323,13.2343 457.656,16.9009 458.5,20.5C 458.167,20.5 457.833,20.5 457.5,20.5C 457.389,19.8826 457.056,19.3826 456.5,19C 454.167,18.3333 451.833,18.3333 449.5,19C 444.577,23.5435 444.244,28.3769 448.5,33.5C 450.265,34.4614 452.265,34.7947 454.5,34.5C 456.36,39.193 457.026,44.193 456.5,49.5C 454.219,49.0773 452.552,49.744 451.5,51.5C 451.167,51.5 450.833,51.5 450.5,51.5C 450.768,49.901 450.434,48.5676 449.5,47.5C 449.229,43.8637 447.563,41.0304 444.5,39C 440.702,35.7678 436.369,33.6012 431.5,32.5C 430.5,31.8333 429.5,31.1667 428.5,30.5C 430.344,28.7211 431.01,26.3878 430.5,23.5C 435.167,23.5 439.833,23.5 444.5,23.5C 444.5,18.8333 444.5,14.1667 444.5,9.5C 448.5,9.5 452.5,9.5 456.5,9.5C 456.5,6.16667 456.5,2.83333 456.5,-0.5 Z"/></g>
<g><path style="opacity:1" fill="#061f51" d="M 379.5,31.5 C 379.833,31.5 380.167,31.5 380.5,31.5C 381.479,34.6248 381.813,37.9581 381.5,41.5C 381.167,41.5 380.833,41.5 380.5,41.5C 368.322,41.1716 356.322,41.5049 344.5,42.5C 344.167,42.5 343.833,42.5 343.5,42.5C 343.5,41.8333 343.5,41.1667 343.5,40.5C 355.278,37.6953 367.278,36.3619 379.5,36.5C 379.5,35.1667 379.5,33.8333 379.5,32.5C 379.5,32.1667 379.5,31.8333 379.5,31.5 Z"/></g>
<g><path style="opacity:1" fill="#1e498b" d="M 133.5,31.5 C 133.733,36.0345 132.9,40.3678 131,44.5C 129.301,45.4061 127.467,45.7394 125.5,45.5C 125.5,41.1667 125.5,36.8333 125.5,32.5C 128.054,31.612 130.721,31.2786 133.5,31.5 Z"/></g>
<g><path style="opacity:1" fill="#29568e" d="M 263.5,32.5 C 262.448,32.3505 261.448,32.5172 260.5,33C 261.578,33.6739 262.245,34.6739 262.5,36C 261.167,38.8471 259.5,41.5137 257.5,44C 257.957,44.414 258.291,44.914 258.5,45.5C 256.345,45.838 254.011,45.838 251.5,45.5C 251.768,47.099 251.434,48.4324 250.5,49.5C 250.035,43.316 250.701,37.316 252.5,31.5C 255.64,30.3592 258.973,30.1925 262.5,31C 263.056,31.3826 263.389,31.8826 263.5,32.5 Z"/></g>
<g><path style="opacity:1" fill="#0f3970" d="M 315.5,31.5 C 315.833,32.1667 316.167,32.8333 316.5,33.5C 315.659,38.0097 314.992,42.6764 314.5,47.5C 311.482,47.6646 308.482,47.498 305.5,47C 304.789,45.7453 303.956,44.5786 303,43.5C 301.056,45.2206 298.89,46.554 296.5,47.5C 297.933,45.4418 298.6,43.1085 298.5,40.5C 301.157,38.534 302.823,35.8673 303.5,32.5C 307.429,31.5672 311.429,31.2338 315.5,31.5 Z"/></g>
<g><path style="opacity:1" fill="#153b6f" d="M 379.5,31.5 C 379.5,31.8333 379.5,32.1667 379.5,32.5C 367.418,32.5597 355.418,33.393 343.5,35C 344.623,36.0437 345.956,36.7104 347.5,37C 345.681,37.7403 344.348,38.9069 343.5,40.5C 343.5,41.1667 343.5,41.8333 343.5,42.5C 340.702,43.7063 338.535,45.7063 337,48.5C 335.141,47.3545 334.307,45.6878 334.5,43.5C 335.095,40.8599 335.428,38.1933 335.5,35.5C 335.33,34.1779 335.663,33.0113 336.5,32C 350.829,31.5001 365.163,31.3334 379.5,31.5 Z"/></g>
<g><path style="opacity:1" fill="#8b9fb7" d="M 252.5,31.5 C 250.701,37.316 250.035,43.316 250.5,49.5C 250.167,49.5 249.833,49.5 249.5,49.5C 249.334,44.4889 249.501,39.4889 250,34.5C 250.236,32.8807 251.069,31.8807 252.5,31.5 Z"/></g>
<g><path style="opacity:1" fill="#646a7e" d="M 380.5,41.5 C 380.5,41.8333 380.5,42.1667 380.5,42.5C 368.42,42.1881 356.42,42.5214 344.5,43.5C 344.5,43.1667 344.5,42.8333 344.5,42.5C 356.322,41.5049 368.322,41.1716 380.5,41.5 Z"/></g>
<g><path style="opacity:1" fill="#0b2347" d="M 427.5,32.5 C 428.833,32.5 430.167,32.5 431.5,32.5C 436.369,33.6012 440.702,35.7678 444.5,39C 447.563,41.0304 449.229,43.8637 449.5,47.5C 448.069,46.0975 446.902,44.4308 446,42.5C 445.383,43.4491 445.549,44.2825 446.5,45C 445.033,46.0975 444.199,47.5975 444,49.5C 440.056,45.857 435.89,42.857 431.5,40.5C 433.176,39.8166 433.843,38.4832 433.5,36.5C 430.708,36.3775 428.708,35.0442 427.5,32.5 Z"/></g>
<g><path style="opacity:1" fill="#387299" d="M 23.5,27.5 C 24.8333,27.5 26.1667,27.5 27.5,27.5C 17.3915,33.9391 9.39154,42.2724 3.5,52.5C 4.32261,49.1294 5.48928,45.7961 7,42.5C 7.7083,41.6195 8.54163,40.9528 9.5,40.5C 14.1927,36.1386 18.8594,31.8052 23.5,27.5 Z"/></g>
<g><path style="opacity:1" fill="#c7cad0" d="M 380.5,42.5 C 380.158,43.3382 379.492,43.6716 378.5,43.5C 367.833,43.5 357.167,43.5 346.5,43.5C 346.5,47.8333 346.5,52.1667 346.5,56.5C 344.57,52.6273 343.903,48.294 344.5,43.5C 356.42,42.5214 368.42,42.1881 380.5,42.5 Z"/></g>
<g><path style="opacity:1" fill="#124d8a" d="M 237.5,31.5 C 238.091,32.1515 238.757,32.8182 239.5,33.5C 238.539,37.456 236.205,40.1227 232.5,41.5C 233.348,43.4086 233.682,45.4086 233.5,47.5C 230.422,47.413 228.089,46.0797 226.5,43.5C 226.654,39.5473 227.654,35.8806 229.5,32.5C 232.127,31.9084 234.794,31.5751 237.5,31.5 Z"/></g>
<g><path style="opacity:1" fill="#f3f3f3" d="M 378.5,43.5 C 378.5,45.5 378.5,47.5 378.5,49.5C 382.833,49.5 387.167,49.5 391.5,49.5C 391.5,53.5 391.5,57.5 391.5,61.5C 387.833,61.5 384.167,61.5 380.5,61.5C 380.784,63.4147 380.451,65.0813 379.5,66.5C 379.784,63.2234 379.451,60.0567 378.5,57C 367.839,56.5002 357.172,56.3335 346.5,56.5C 346.5,52.1667 346.5,47.8333 346.5,43.5C 357.167,43.5 367.833,43.5 378.5,43.5 Z"/></g>
<g><path style="opacity:1" fill="#0e2545" d="M 50.5,22.5 C 55.3633,22.1805 60.03,22.5139 64.5,23.5C 59.496,23.8893 54.496,24.3893 49.5,25C 48.4019,25.7697 48.4019,26.603 49.5,27.5C 48.8161,29.4488 47.6494,31.1155 46,32.5C 45.023,34.74 44.523,37.0733 44.5,39.5C 44.5,40.1667 44.1667,40.5 43.5,40.5C 42.0687,41.7804 41.4021,43.4471 41.5,45.5C 38.7267,45.8118 36.3934,46.9784 34.5,49C 34.8333,49.3333 35.1667,49.6667 35.5,50C 34.7734,51.3988 34.2734,52.8988 34,54.5C 32.6667,55.1667 31.3333,55.8333 30,56.5C 29.5503,58.519 28.717,60.3523 27.5,62C 22.2901,62.8816 19.7901,66.0482 20,71.5C 19.3292,72.2524 18.4959,72.5858 17.5,72.5C 17.5,72.1667 17.5,71.8333 17.5,71.5C 18.7225,67.5654 20.3892,63.8987 22.5,60.5C 24.3839,59.6613 25.7172,58.328 26.5,56.5C 30.0095,53.6423 32.3429,49.9757 33.5,45.5C 36.6777,40.6717 39.6777,35.6717 42.5,30.5C 42.8039,29.8501 43.1373,29.1835 43.5,28.5C 42,28.1667 40.5,27.8333 39,27.5C 36.4563,27.336 34.2897,28.0027 32.5,29.5C 15.0652,36.385 7.39849,49.0517 9.5,67.5C 8.35686,67.9081 7.35686,68.5748 6.5,69.5C 8.00488,70.8415 8.67154,72.5082 8.5,74.5C 5.65905,72.3598 4.32572,69.3598 4.5,65.5C 3.51511,61.3656 3.18178,57.0323 3.5,52.5C 9.39154,42.2724 17.3915,33.9391 27.5,27.5C 30.4569,26.3448 33.4569,25.3448 36.5,24.5C 41.3384,24.0886 46.0051,23.4219 50.5,22.5 Z"/></g>
<g><path style="opacity:1" fill="#63788c" d="M 42.5,30.5 C 39.6777,35.6717 36.6777,40.6717 33.5,45.5C 33.5912,43.3023 32.9245,42.9689 31.5,44.5C 32.974,40.2186 34.974,36.2186 37.5,32.5C 38.2216,32.0825 38.7216,31.4158 39,30.5C 39.9862,31.1712 41.1529,31.1712 42.5,30.5 Z"/></g>
<g><path style="opacity:1" fill="#a7b3c1" d="M 42.5,30.5 C 41.1529,31.1712 39.9862,31.1712 39,30.5C 38.7216,31.4158 38.2216,32.0825 37.5,32.5C 37.5,31.5 37.5,30.5 37.5,29.5C 35.8333,29.5 34.1667,29.5 32.5,29.5C 34.2897,28.0027 36.4563,27.336 39,27.5C 40.5,27.8333 42,28.1667 43.5,28.5C 43.1373,29.1835 42.8039,29.8501 42.5,30.5 Z"/></g>
<g><path style="opacity:1" fill="#505f71" d="M 43.5,40.5 C 42.8857,44.1352 42.5524,47.8019 42.5,51.5C 41.5386,49.7354 41.2053,47.7354 41.5,45.5C 41.4021,43.4471 42.0687,41.7804 43.5,40.5 Z"/></g>
<g><path style="opacity:1" fill="#194279" d="M 263.5,32.5 C 264.401,33.2905 265.068,34.2905 265.5,35.5C 265.5,35.8333 265.5,36.1667 265.5,36.5C 264.876,36.9169 264.543,37.5836 264.5,38.5C 266.271,41.2558 267.271,44.2558 267.5,47.5C 262.54,48.4889 257.54,49.3222 252.5,50C 250.924,52.9508 250.257,56.1174 250.5,59.5C 250.167,59.5 249.833,59.5 249.5,59.5C 249.5,56.1667 249.5,52.8333 249.5,49.5C 249.833,49.5 250.167,49.5 250.5,49.5C 251.434,48.4324 251.768,47.099 251.5,45.5C 254.011,45.838 256.345,45.838 258.5,45.5C 258.291,44.914 257.957,44.414 257.5,44C 259.5,41.5137 261.167,38.8471 262.5,36C 262.245,34.6739 261.578,33.6739 260.5,33C 261.448,32.5172 262.448,32.3505 263.5,32.5 Z"/></g>
<g><path style="opacity:1" fill="#2b485f" d="M 33.5,45.5 C 32.3429,49.9757 30.0095,53.6423 26.5,56.5C 26.6287,54.7839 26.962,53.1172 27.5,51.5C 28.5665,49.036 29.8998,46.7026 31.5,44.5C 32.9245,42.9689 33.5912,43.3023 33.5,45.5 Z"/></g>
<g><path style="opacity:1" fill="#143e6e" d="M 177.5,40.5 C 177.5,40.8333 177.5,41.1667 177.5,41.5C 176.596,42.209 176.263,43.209 176.5,44.5C 174.859,45.147 173.526,46.147 172.5,47.5C 170.952,47.8212 170.285,48.8212 170.5,50.5C 169.5,50.5 168.5,50.5 167.5,50.5C 167.405,52.7857 166.738,54.7857 165.5,56.5C 165.5,52.8333 165.5,49.1667 165.5,45.5C 166.167,42.1667 166.833,38.8333 167.5,35.5C 167.238,36.9778 167.571,38.3112 168.5,39.5C 170.173,37.9137 172.173,37.2471 174.5,37.5C 174.222,35.6536 174.889,34.3202 176.5,33.5C 177.474,35.7427 177.808,38.076 177.5,40.5 Z"/></g>
<g><path style="opacity:1" fill="#0c2d5a" d="M 316.5,33.5 C 317,39.0283 316.333,44.3617 314.5,49.5C 312.314,50.2208 310.147,50.8875 308,51.5C 306.249,50.8263 304.583,50.493 303,50.5C 299.245,54.0907 295.078,57.0907 290.5,59.5C 290.629,57.7839 290.962,56.1172 291.5,54.5C 293.522,52.4687 295.189,50.1354 296.5,47.5C 298.89,46.554 301.056,45.2206 303,43.5C 303.956,44.5786 304.789,45.7453 305.5,47C 308.482,47.498 311.482,47.6646 314.5,47.5C 314.992,42.6764 315.659,38.0097 316.5,33.5 Z"/></g>
<g><path style="opacity:1" fill="#647997" d="M 298.5,40.5 C 298.6,43.1085 297.933,45.4418 296.5,47.5C 295.189,50.1354 293.522,52.4687 291.5,54.5C 293.469,49.552 295.803,44.8853 298.5,40.5 Z"/></g>
<g><path style="opacity:1" fill="#144071" d="M 237.5,31.5 C 238.167,31.5 238.833,31.5 239.5,31.5C 240.622,33.2884 240.789,35.2884 240,37.5C 236.923,42.9116 233.756,48.245 230.5,53.5C 229.504,53.5858 228.671,53.2524 228,52.5C 227.383,53.4491 227.549,54.2825 228.5,55C 227.451,55.4922 226.451,55.3256 225.5,54.5C 222.742,51.9065 222.075,48.9065 223.5,45.5C 224.5,44.8333 225.5,44.1667 226.5,43.5C 228.089,46.0797 230.422,47.413 233.5,47.5C 233.682,45.4086 233.348,43.4086 232.5,41.5C 236.205,40.1227 238.539,37.456 239.5,33.5C 238.757,32.8182 238.091,32.1515 237.5,31.5 Z"/></g>
<g><path style="opacity:1" fill="#ecedee" d="M 32.5,29.5 C 34.1667,29.5 35.8333,29.5 37.5,29.5C 37.5,30.5 37.5,31.5 37.5,32.5C 34.974,36.2186 32.974,40.2186 31.5,44.5C 29.8998,46.7026 28.5665,49.036 27.5,51.5C 26.0941,53.4736 24.5941,55.4736 23,57.5C 22.5172,58.448 22.3505,59.448 22.5,60.5C 20.3892,63.8987 18.7225,67.5654 17.5,71.5C 16.3263,72.5137 15.6596,73.847 15.5,75.5C 12.4058,73.7284 10.4058,71.0617 9.5,67.5C 7.39849,49.0517 15.0652,36.385 32.5,29.5 Z"/></g>
<g><path style="opacity:1" fill="#f9f9f9" d="M 115.5,35.5 C 117.833,35.5 120.167,35.5 122.5,35.5C 122.5,48.8333 122.5,62.1667 122.5,75.5C 120.167,75.5 117.833,75.5 115.5,75.5C 115.5,70.8333 115.5,66.1667 115.5,61.5C 111.5,61.5 107.5,61.5 103.5,61.5C 103.5,58.1667 103.5,54.8333 103.5,51.5C 107.029,49.5772 111.029,48.9106 115.5,49.5C 115.5,44.8333 115.5,40.1667 115.5,35.5 Z"/></g>
<g><path style="opacity:1" fill="#eaebec" d="M 265.5,36.5 C 265.5,36.1667 265.5,35.8333 265.5,35.5C 268.167,35.5 270.833,35.5 273.5,35.5C 273.5,40.1667 273.5,44.8333 273.5,49.5C 277.833,49.5 282.167,49.5 286.5,49.5C 286.187,53.0419 286.521,56.3752 287.5,59.5C 286.501,62.1618 285.501,64.8284 284.5,67.5C 284.154,69.3628 283.154,70.1961 281.5,70C 280.236,67.0424 278.902,64.2091 277.5,61.5C 277.771,59.6203 277.104,58.287 275.5,57.5C 272.715,52.5045 270.548,47.1712 269,41.5C 268.303,39.4156 267.136,37.7489 265.5,36.5 Z"/></g>
<g><path style="opacity:1" fill="#f6f6f7" d="M 318.5,35.5 C 320.833,35.5 323.167,35.5 325.5,35.5C 327.5,35.5 329.5,35.5 331.5,35.5C 331.5,48.8333 331.5,62.1667 331.5,75.5C 329.5,75.5 327.5,75.5 325.5,75.5C 325.5,79.5 325.5,83.5 325.5,87.5C 323.167,87.5 320.833,87.5 318.5,87.5C 318.5,70.1667 318.5,52.8333 318.5,35.5 Z"/></g>
<g><path style="opacity:1" fill="#0e1b35" d="M 405.5,39.5 C 414.221,39.2246 422.887,39.5579 431.5,40.5C 435.89,42.857 440.056,45.857 444,49.5C 444.199,47.5975 445.033,46.0975 446.5,45C 445.549,44.2825 445.383,43.4491 446,42.5C 446.902,44.4308 448.069,46.0975 449.5,47.5C 450.434,48.5676 450.768,49.901 450.5,51.5C 449.503,51.4701 448.836,51.9701 448.5,53C 447.976,57.6766 446.809,62.1766 445,66.5C 442.293,68.3875 439.793,70.3875 437.5,72.5C 437.5,71.8333 437.5,71.1667 437.5,70.5C 438.72,66.7808 439.387,62.9475 439.5,59C 439.7,56.1345 439.033,53.6345 437.5,51.5C 437.573,49.9731 436.906,48.9731 435.5,48.5C 433.66,46.0855 431.327,44.4188 428.5,43.5C 424.966,41.9524 421.133,41.2857 417,41.5C 413.979,41.5022 411.146,41.8356 408.5,42.5C 408.5,55.5 408.5,68.5 408.5,81.5C 407.672,75.3466 407.172,69.0133 407,62.5C 406.692,61.6919 406.192,61.0253 405.5,60.5C 403.617,65.934 400.95,70.934 397.5,75.5C 396.265,80.8534 396.265,86.1868 397.5,91.5C 396.5,91.1667 395.833,90.5 395.5,89.5C 395.194,79.7504 395.527,70.0838 396.5,60.5C 397.675,60.719 398.675,60.3857 399.5,59.5C 402.518,53.5936 404.852,47.4269 406.5,41C 405.944,40.6174 405.611,40.1174 405.5,39.5 Z"/></g>
<g><path style="opacity:1" fill="#757b87" d="M 435.5,48.5 C 436.906,48.9731 437.573,49.9731 437.5,51.5C 436.094,51.0269 435.427,50.0269 435.5,48.5 Z"/></g>
<g><path style="opacity:1" fill="#979da6" d="M 408.5,42.5 C 411.146,41.8356 413.979,41.5022 417,41.5C 421.133,41.2857 424.966,41.9524 428.5,43.5C 421.833,43.1667 415.167,42.8333 408.5,42.5 Z"/></g>
<g><path style="opacity:1" fill="#113263" d="M 267.5,47.5 C 270.555,49.8158 271.221,52.8158 269.5,56.5C 267.584,57.2483 265.584,57.2483 263.5,56.5C 263.33,55.1779 263.663,54.0113 264.5,53C 263.975,52.3076 263.308,51.8076 262.5,51.5C 260.057,53.0553 257.39,53.722 254.5,53.5C 255.093,56.5959 254.093,58.9292 251.5,60.5C 250.893,60.3764 250.56,60.0431 250.5,59.5C 250.257,56.1174 250.924,52.9508 252.5,50C 257.54,49.3222 262.54,48.4889 267.5,47.5 Z"/></g>
<g><path style="opacity:1" fill="#65798c" d="M 61.5,50.5 C 59.8243,52.8337 57.491,53.8337 54.5,53.5C 56.5093,51.9348 58.8427,50.9348 61.5,50.5 Z"/></g>
<g><path style="opacity:1" fill="#0d274f" d="M 396.5,38.5 C 397.151,39.0906 397.818,39.7573 398.5,40.5C 400.747,39.6258 403.08,39.2924 405.5,39.5C 405.611,40.1174 405.944,40.6174 406.5,41C 404.852,47.4269 402.518,53.5936 399.5,59.5C 398.675,60.3857 397.675,60.719 396.5,60.5C 396.5,53.1667 396.5,45.8333 396.5,38.5 Z"/></g>
<g><path style="opacity:1" fill="#0e2c51" d="M 81.5,39.5 C 82.0577,40.7899 83.0577,41.6232 84.5,42C 83.4045,43.6753 81.9045,44.842 80,45.5C 79,44.1667 78,44.1667 77,45.5C 76.065,50.2592 74.8983,55.2592 73.5,60.5C 74.8373,63.3905 76.8373,64.0572 79.5,62.5C 76.7588,65.9906 75.0922,69.9906 74.5,74.5C 73.8333,75.1667 73.1667,75.8333 72.5,76.5C 72.75,73.786 72.9167,71.1194 73,68.5C 71.951,66.8934 70.451,66.2267 68.5,66.5C 68.6795,68.9541 68.0128,71.1208 66.5,73C 66.6667,73.5 66.8333,74 67,74.5C 67.3076,73.6919 67.8076,73.0253 68.5,72.5C 69.6139,73.723 69.7805,75.0563 69,76.5C 65.6919,76.9189 62.8586,78.2522 60.5,80.5C 60.7329,78.9382 61.3995,77.6049 62.5,76.5C 64.5167,73.7327 64.8501,70.7327 63.5,67.5C 64.084,63.0415 64.084,58.3748 63.5,53.5C 64.1799,52.1401 64.8466,50.8068 65.5,49.5C 70.9557,46.3498 76.289,43.0164 81.5,39.5 Z"/></g>
<g><path style="opacity:1" fill="#30476f" d="M 133.5,31.5 C 133.833,31.5 134.167,31.5 134.5,31.5C 134.801,40.1522 135.801,48.4855 137.5,56.5C 146.5,56.5 155.5,56.5 164.5,56.5C 164.5,56.8333 164.5,57.1667 164.5,57.5C 154.114,57.8093 143.781,57.476 133.5,56.5C 132.41,57.727 131.076,58.5604 129.5,59C 130.308,59.3076 130.975,59.8076 131.5,60.5C 129.604,61.4656 127.604,61.7989 125.5,61.5C 124.404,64.7686 124.07,71.4352 124.5,81.5C 124.5,83.1667 124.5,84.8333 124.5,86.5C 123.176,68.5978 123.176,50.5978 124.5,32.5C 124.833,32.5 125.167,32.5 125.5,32.5C 125.5,36.8333 125.5,41.1667 125.5,45.5C 127.467,45.7394 129.301,45.4061 131,44.5C 132.9,40.3678 133.733,36.0345 133.5,31.5 Z"/></g>
<g><path style="opacity:1" fill="#0a2342" d="M 65.5,49.5 C 64.8466,50.8068 64.1799,52.1401 63.5,53.5C 64.084,58.3748 64.084,63.0415 63.5,67.5C 63.1667,66.8333 62.8333,66.1667 62.5,65.5C 62.7845,63.5853 62.4511,61.9187 61.5,60.5C 58.9215,59.2107 56.2548,57.8774 53.5,56.5C 49.1286,58.6355 44.7953,58.8022 40.5,57C 41.448,56.5172 42.448,56.3505 43.5,56.5C 43.3713,54.7839 43.038,53.1172 42.5,51.5C 46.1313,54.5687 50.1313,55.2354 54.5,53.5C 57.491,53.8337 59.8243,52.8337 61.5,50.5C 62.8333,50.1667 64.1667,49.8333 65.5,49.5 Z"/></g>
<g><path style="opacity:1" fill="#0a2042" d="M 188.5,35.5 C 190.654,38.8049 193.654,41.3049 197.5,43C 199.134,43.4935 200.801,43.6602 202.5,43.5C 202.552,41.0971 202.219,38.7638 201.5,36.5C 205.048,41.108 208.048,46.108 210.5,51.5C 212.046,53.8825 212.713,56.5491 212.5,59.5C 210.571,60.0063 208.905,61.0063 207.5,62.5C 206.583,61.8728 205.583,61.5394 204.5,61.5C 199.595,52.5893 194.261,43.9226 188.5,35.5 Z"/></g>
<g><path style="opacity:1" fill="#5f7287" d="M 27.5,51.5 C 26.962,53.1172 26.6287,54.7839 26.5,56.5C 25.7172,58.328 24.3839,59.6613 22.5,60.5C 22.3505,59.448 22.5172,58.448 23,57.5C 24.5941,55.4736 26.0941,53.4736 27.5,51.5 Z"/></g>
<g><path style="opacity:1" fill="#1e3856" d="M 223.5,45.5 C 222.075,48.9065 222.742,51.9065 225.5,54.5C 226.451,55.3256 227.451,55.4922 228.5,55C 227.549,54.2825 227.383,53.4491 228,52.5C 228.671,53.2524 229.504,53.5858 230.5,53.5C 228.102,56.5712 226.102,59.9046 224.5,63.5C 223.449,64.2223 222.782,65.2223 222.5,66.5C 221.833,66.8333 221.167,67.1667 220.5,67.5C 220.754,63.6898 221.754,60.8564 223.5,59C 221.517,52.8633 220.184,53.0299 219.5,59.5C 217.031,58.9329 214.698,58.9329 212.5,59.5C 212.713,56.5491 212.046,53.8825 210.5,51.5C 212.727,52.4006 213.727,54.0672 213.5,56.5C 215.143,56.5198 216.476,55.8532 217.5,54.5C 219.272,51.272 221.272,48.272 223.5,45.5 Z"/></g>
<g><path style="opacity:1" fill="#1f3254" d="M 265.5,36.5 C 267.136,37.7489 268.303,39.4156 269,41.5C 270.548,47.1712 272.715,52.5045 275.5,57.5C 274.883,57.6107 274.383,57.944 274,58.5C 273.667,57.1667 273.333,55.8333 273,54.5C 272.503,56.8098 272.337,59.1432 272.5,61.5C 270.401,60.7691 268.401,60.7691 266.5,61.5C 267.348,63.4086 267.682,65.4086 267.5,67.5C 266.018,63.3198 264.018,59.3198 261.5,55.5C 260.833,66.6593 260.167,77.6593 259.5,88.5C 259.666,79.8269 259.5,71.1603 259,62.5C 257.907,64.3492 256.574,66.0158 255,67.5C 253.732,67.3842 252.398,67.0509 251,66.5C 250.667,67.1667 250.333,67.8333 250,68.5C 249.5,75.1583 249.334,81.825 249.5,88.5C 248.167,78.8333 248.167,69.1667 249.5,59.5C 249.833,59.5 250.167,59.5 250.5,59.5C 250.56,60.0431 250.893,60.3764 251.5,60.5C 254.093,58.9292 255.093,56.5959 254.5,53.5C 257.39,53.722 260.057,53.0553 262.5,51.5C 263.308,51.8076 263.975,52.3076 264.5,53C 263.663,54.0113 263.33,55.1779 263.5,56.5C 265.584,57.2483 267.584,57.2483 269.5,56.5C 271.221,52.8158 270.555,49.8158 267.5,47.5C 267.271,44.2558 266.271,41.2558 264.5,38.5C 264.543,37.5836 264.876,36.9169 265.5,36.5 Z"/></g>
<g><path style="opacity:1" fill="#192b49" d="M 316.5,33.5 C 317.833,33.5 318.5,34.1667 318.5,35.5C 318.5,52.8333 318.5,70.1667 318.5,87.5C 318.672,88.4916 318.338,89.1583 317.5,89.5C 317.667,77.1622 317.5,64.8288 317,52.5C 316.667,54.8333 316.333,57.1667 316,59.5C 315.617,60.056 315.117,60.3893 314.5,60.5C 312.476,58.7961 310.976,56.7961 310,54.5C 308.249,55.2225 306.749,56.2225 305.5,57.5C 305.655,54.1469 304.988,53.8136 303.5,56.5C 300.264,61.9691 297.264,67.6358 294.5,73.5C 293.094,73.9731 292.427,74.9731 292.5,76.5C 292.167,76.5 291.833,76.5 291.5,76.5C 284.892,76.1323 283.225,73.1323 286.5,67.5C 286.54,64.1189 287.873,61.4523 290.5,59.5C 295.078,57.0907 299.245,54.0907 303,50.5C 304.583,50.493 306.249,50.8263 308,51.5C 310.147,50.8875 312.314,50.2208 314.5,49.5C 316.333,44.3617 317,39.0283 316.5,33.5 Z"/></g>
<g><path style="opacity:1" fill="#96a2b2" d="M 84.5,54.5 C 84.2753,57.5458 82.942,59.8791 80.5,61.5C 81.4676,58.8997 82.8009,56.5664 84.5,54.5 Z"/></g>
<g><path style="opacity:1" fill="#022459" d="M 172.5,47.5 C 170.594,51.366 170.26,55.366 171.5,59.5C 171.547,61.0004 170.881,62.0004 169.5,62.5C 163.571,61.9941 157.571,61.9941 151.5,62.5C 147.5,62.1667 143.5,61.8333 139.5,61.5C 139.667,61.1667 139.833,60.8333 140,60.5C 145.243,60.2693 150.243,60.2693 155,60.5C 158.188,59.2329 161.355,58.2329 164.5,57.5C 164.5,57.1667 164.5,56.8333 164.5,56.5C 164.833,56.5 165.167,56.5 165.5,56.5C 166.738,54.7857 167.405,52.7857 167.5,50.5C 168.5,50.5 169.5,50.5 170.5,50.5C 170.285,48.8212 170.952,47.8212 172.5,47.5 Z"/></g>
<g><path style="opacity:1" fill="#10213f" d="M 344.5,43.5 C 343.903,48.294 344.57,52.6273 346.5,56.5C 357.172,56.3335 367.839,56.5002 378.5,57C 379.451,60.0567 379.784,63.2234 379.5,66.5C 379.167,66.5 378.833,66.5 378.5,66.5C 378.167,66.5 377.833,66.5 377.5,66.5C 377.662,64.4727 377.495,62.4727 377,60.5C 374.739,62.6304 372.072,63.9638 369,64.5C 361.192,63.4141 353.359,63.2474 345.5,64C 341.9,65.266 339.733,67.766 339,71.5C 338.311,70.6433 337.478,69.9767 336.5,69.5C 334.912,74.7097 334.245,80.0431 334.5,85.5C 334.5,86.1667 334.5,86.8333 334.5,87.5C 334.167,87.5 333.833,87.5 333.5,87.5C 333.5,78.5 333.5,69.5 333.5,60.5C 335.697,61.8484 337.697,63.5151 339.5,65.5C 340.442,65.3918 341.275,65.0585 342,64.5C 342.707,62.9194 343.54,61.4194 344.5,60C 343.035,58.107 341.369,56.4404 339.5,55C 341.719,51.3604 343.386,47.5271 344.5,43.5 Z"/></g>
<g><path style="opacity:1" fill="#04162d" d="M 41.5,45.5 C 41.2053,47.7354 41.5386,49.7354 42.5,51.5C 43.038,53.1172 43.3713,54.7839 43.5,56.5C 42.448,56.3505 41.448,56.5172 40.5,57C 44.7953,58.8022 49.1286,58.6355 53.5,56.5C 56.2548,57.8774 58.9215,59.2107 61.5,60.5C 54.1208,59.9403 47.2874,61.6069 41,65.5C 38.6023,65.9353 36.269,65.2687 34,63.5C 32.7581,64.8721 31.2581,65.8721 29.5,66.5C 28.6858,68.7662 28.1858,71.0995 28,73.5C 27.6667,73.1667 27.3333,72.8333 27,72.5C 26.4454,75.5417 24.6121,77.375 21.5,78C 23.4054,78.8261 23.7388,79.9928 22.5,81.5C 20.6745,80.4291 19.5079,81.0958 19,83.5C 17.6703,82.4178 16.1703,81.7512 14.5,81.5C 13.1667,80.5 11.8333,79.5 10.5,78.5C 9.39952,77.3951 8.73286,76.0618 8.5,74.5C 8.67154,72.5082 8.00488,70.8415 6.5,69.5C 7.35686,68.5748 8.35686,67.9081 9.5,67.5C 10.4058,71.0617 12.4058,73.7284 15.5,75.5C 16.9063,75.0269 17.573,74.0269 17.5,72.5C 18.4959,72.5858 19.3292,72.2524 20,71.5C 19.7901,66.0482 22.2901,62.8816 27.5,62C 28.717,60.3523 29.5503,58.519 30,56.5C 31.3333,55.8333 32.6667,55.1667 34,54.5C 34.2734,52.8988 34.7734,51.3988 35.5,50C 35.1667,49.6667 34.8333,49.3333 34.5,49C 36.3934,46.9784 38.7267,45.8118 41.5,45.5 Z"/></g>
<g><path style="opacity:1" fill="#7c818d" d="M 275.5,57.5 C 277.104,58.287 277.771,59.6203 277.5,61.5C 276.326,60.4863 275.66,59.153 275.5,57.5 Z"/></g>
<g><path style="opacity:1" fill="#eeeff0" d="M 96.5,66.5 C 94.9899,68.322 93.6566,70.322 92.5,72.5C 88.1117,76.2214 83.4451,79.5547 78.5,82.5C 77.0107,80.0184 75.6774,77.3517 74.5,74.5C 75.0922,69.9906 76.7588,65.9906 79.5,62.5C 79.5,61.8333 79.8333,61.5 80.5,61.5C 82.942,59.8791 84.2753,57.5458 84.5,54.5C 86.4433,50.8673 88.4433,47.2006 90.5,43.5C 90.8333,43.1667 91.1667,42.8333 91.5,42.5C 93.4586,43.7481 94.9586,45.4148 96,47.5C 96.4995,53.8246 96.6662,60.1579 96.5,66.5 Z"/></g>
<g><path style="opacity:1" fill="#f2f2f2" d="M 234.5,61.5 C 238.5,61.5 242.5,61.5 246.5,61.5C 246.5,66.1667 246.5,70.8333 246.5,75.5C 242.5,75.5 238.5,75.5 234.5,75.5C 234.5,79.5 234.5,83.5 234.5,87.5C 229.737,87.2256 225.07,87.559 220.5,88.5C 220.152,81.0477 220.818,73.7144 222.5,66.5C 222.782,65.2223 223.449,64.2223 224.5,63.5C 227.582,61.819 230.915,61.1524 234.5,61.5 Z"/></g>
<g><path style="opacity:1" fill="#f2f2f3" d="M 408.5,42.5 C 415.167,42.8333 421.833,43.1667 428.5,43.5C 431.327,44.4188 433.66,46.0855 435.5,48.5C 435.427,50.0269 436.094,51.0269 437.5,51.5C 439.033,53.6345 439.7,56.1345 439.5,59C 439.387,62.9475 438.72,66.7808 437.5,70.5C 435.937,71.9448 434.604,73.6115 433.5,75.5C 431.313,77.1796 428.979,78.6796 426.5,80C 420.545,81.0717 414.545,81.5717 408.5,81.5C 408.5,68.5 408.5,55.5 408.5,42.5 Z"/></g>
<g><path style="opacity:1" fill="#051133" d="M 4.5,65.5 C 4.76456,61.1467 5.26456,56.8134 6,52.5C 7.71395,57.0827 7.88062,61.7494 6.5,66.5C 5.81654,66.1373 5.14987,65.8039 4.5,65.5 Z"/></g>
<g><path style="opacity:1" fill="#08224b" d="M 176.5,44.5 C 176.5,49.8333 176.5,55.1667 176.5,60.5C 175.835,62.3691 175.169,64.3691 174.5,66.5C 173.228,67.046 171.894,67.3793 170.5,67.5C 158.913,65.2411 147.247,64.9078 135.5,66.5C 134.185,67.4756 132.852,68.4756 131.5,69.5C 130.914,69.2907 130.414,68.9574 130,68.5C 129.482,71.0226 128.148,73.0226 126,74.5C 125.814,77.0356 125.314,79.369 124.5,81.5C 124.07,71.4352 124.404,64.7686 125.5,61.5C 127.604,61.7989 129.604,61.4656 131.5,60.5C 130.975,59.8076 130.308,59.3076 129.5,59C 131.076,58.5604 132.41,57.727 133.5,56.5C 143.781,57.476 154.114,57.8093 164.5,57.5C 161.355,58.2329 158.188,59.2329 155,60.5C 150.243,60.2693 145.243,60.2693 140,60.5C 139.833,60.8333 139.667,61.1667 139.5,61.5C 143.5,61.8333 147.5,62.1667 151.5,62.5C 157.571,61.9941 163.571,61.9941 169.5,62.5C 170.881,62.0004 171.547,61.0004 171.5,59.5C 170.26,55.366 170.594,51.366 172.5,47.5C 173.526,46.147 174.859,45.147 176.5,44.5 Z"/></g>
<g><path style="opacity:1" fill="#0c2449" d="M 335.5,35.5 C 335.428,38.1933 335.095,40.8599 334.5,43.5C 334.307,45.6878 335.141,47.3545 337,48.5C 338.535,45.7063 340.702,43.7063 343.5,42.5C 343.833,42.5 344.167,42.5 344.5,42.5C 344.5,42.8333 344.5,43.1667 344.5,43.5C 343.386,47.5271 341.719,51.3604 339.5,55C 341.369,56.4404 343.035,58.107 344.5,60C 343.54,61.4194 342.707,62.9194 342,64.5C 341.275,65.0585 340.442,65.3918 339.5,65.5C 337.697,63.5151 335.697,61.8484 333.5,60.5C 333.5,52.8333 333.5,45.1667 333.5,37.5C 334.167,36.8333 334.833,36.1667 335.5,35.5 Z"/></g>
<g><path style="opacity:1" fill="#89919b" d="M 102.5,61.5 C 102.59,64.1522 101.924,66.4855 100.5,68.5C 100.41,65.8478 101.076,63.5145 102.5,61.5 Z"/></g>
<g><path style="opacity:1" fill="#55687e" d="M 291.5,54.5 C 290.962,56.1172 290.629,57.7839 290.5,59.5C 287.873,61.4523 286.54,64.1189 286.5,67.5C 285.833,67.5 285.167,67.5 284.5,67.5C 285.501,64.8284 286.501,62.1618 287.5,59.5C 288.833,57.8333 290.167,56.1667 291.5,54.5 Z"/></g>
<g><path style="opacity:1" fill="#898e97" d="M 377.5,66.5 C 377.833,66.5 378.167,66.5 378.5,66.5C 378.5,67.1667 378.5,67.8333 378.5,68.5C 367.5,68.5 356.5,68.5 345.5,68.5C 345.5,72.8333 345.5,77.1667 345.5,81.5C 344.514,77.03 344.181,72.3633 344.5,67.5C 355.581,67.8099 366.581,67.4766 377.5,66.5 Z"/></g>
<g><path style="opacity:1" fill="#111f35" d="M 176.5,60.5 C 176.5,62.8333 176.5,65.1667 176.5,67.5C 174.517,68.9022 172.851,70.7355 171.5,73C 169.82,73.0343 168.32,73.201 167,73.5C 166.501,78.8229 166.334,84.1563 166.5,89.5C 165.833,84.8333 165.167,80.1667 164.5,75.5C 164.5,73.1667 164.5,70.8333 164.5,68.5C 155.014,67.5062 145.348,67.1729 135.5,67.5C 135.5,67.1667 135.5,66.8333 135.5,66.5C 147.247,64.9078 158.913,65.2411 170.5,67.5C 171.894,67.3793 173.228,67.046 174.5,66.5C 175.169,64.3691 175.835,62.3691 176.5,60.5 Z"/></g>
<g><path style="opacity:1" fill="#a9b1bc" d="M 334.5,32.5 C 333.699,34.0418 333.366,35.7085 333.5,37.5C 333.5,45.1667 333.5,52.8333 333.5,60.5C 333.5,69.5 333.5,78.5 333.5,87.5C 332.834,78.5062 332.5,69.3395 332.5,60C 332.502,50.4748 333.168,41.3081 334.5,32.5 Z"/></g>
<g><path style="opacity:1" fill="#f8f8f8" d="M 141.5,68.5 C 149.167,68.5 156.833,68.5 164.5,68.5C 164.5,70.8333 164.5,73.1667 164.5,75.5C 164.5,79.8333 164.5,84.1667 164.5,88.5C 161.552,88.2229 158.719,88.5562 156,89.5C 155.502,92.4816 155.335,95.4816 155.5,98.5C 153.167,98.5 150.833,98.5 148.5,98.5C 146.393,97.5318 144.059,97.1984 141.5,97.5C 141.5,94.5 141.5,91.5 141.5,88.5C 140.167,88.5 138.833,88.5 137.5,88.5C 137.5,84.1667 137.5,79.8333 137.5,75.5C 138.833,75.5 140.167,75.5 141.5,75.5C 141.5,73.1667 141.5,70.8333 141.5,68.5 Z"/></g>
<g><path style="opacity:1" fill="#f3f3f3" d="M 378.5,68.5 C 378.5,70.8333 378.5,73.1667 378.5,75.5C 382.833,75.5 387.167,75.5 391.5,75.5C 391.5,79.5 391.5,83.5 391.5,87.5C 388.833,87.5 386.167,87.5 383.5,87.5C 383.739,85.5328 383.406,83.6995 382.5,82C 370.171,81.5001 357.838,81.3335 345.5,81.5C 345.5,77.1667 345.5,72.8333 345.5,68.5C 356.5,68.5 367.5,68.5 378.5,68.5 Z"/></g>
<g><path style="opacity:1" fill="#9aa1ad" d="M 61.5,65.5 C 61.8333,65.5 62.1667,65.5 62.5,65.5C 62.8333,66.1667 63.1667,66.8333 63.5,67.5C 64.8501,70.7327 64.5167,73.7327 62.5,76.5C 62.6773,72.7657 62.3439,69.0991 61.5,65.5 Z"/></g>
<g><path style="opacity:1" fill="#06122c" d="M 377.5,66.5 C 366.581,67.4766 355.581,67.8099 344.5,67.5C 343.395,73.5423 341.895,79.5423 340,85.5C 339,86.1667 338,86.8333 337,87.5C 336.292,86.6195 335.458,85.9528 334.5,85.5C 334.245,80.0431 334.912,74.7097 336.5,69.5C 337.478,69.9767 338.311,70.6433 339,71.5C 339.733,67.766 341.9,65.266 345.5,64C 353.359,63.2474 361.192,63.4141 369,64.5C 372.072,63.9638 374.739,62.6304 377,60.5C 377.495,62.4727 377.662,64.4727 377.5,66.5 Z"/></g>
<g><path style="opacity:1" fill="#091a34" d="M 259.5,88.5 C 259.229,90.4305 258.229,91.7638 256.5,92.5C 254.784,92.3713 253.117,92.038 251.5,91.5C 250.094,91.0269 249.427,90.0269 249.5,88.5C 249.334,81.825 249.5,75.1583 250,68.5C 250.333,67.8333 250.667,67.1667 251,66.5C 252.398,67.0509 253.732,67.3842 255,67.5C 256.574,66.0158 257.907,64.3492 259,62.5C 259.5,71.1603 259.666,79.8269 259.5,88.5 Z"/></g>
<g><path style="opacity:1" fill="#06162e" d="M 314.5,60.5 C 314.666,66.1764 314.499,71.8431 314,77.5C 312.488,78.2567 311.154,79.2567 310,80.5C 309.53,78.2262 308.53,76.2262 307,74.5C 306.817,71.6353 306.317,68.9686 305.5,66.5C 305.5,63.5 305.5,60.5 305.5,57.5C 306.749,56.2225 308.249,55.2225 310,54.5C 310.976,56.7961 312.476,58.7961 314.5,60.5 Z"/></g>
<g><path style="opacity:1" fill="#0a192f" d="M 220.5,67.5 C 219.928,75.4899 219.262,83.4899 218.5,91.5C 214.905,93.0315 211.572,92.6982 208.5,90.5C 208.666,82.4931 208.5,74.4931 208,66.5C 207.34,64.6763 206.173,63.343 204.5,62.5C 204.5,62.1667 204.5,61.8333 204.5,61.5C 205.583,61.5394 206.583,61.8728 207.5,62.5C 208.905,61.0063 210.571,60.0063 212.5,59.5C 214.698,58.9329 217.031,58.9329 219.5,59.5C 220.184,53.0299 221.517,52.8633 223.5,59C 221.754,60.8564 220.754,63.6898 220.5,67.5 Z"/></g>
<g><path style="opacity:1" fill="#757d88" d="M 17.5,71.5 C 17.5,71.8333 17.5,72.1667 17.5,72.5C 17.573,74.0269 16.9063,75.0269 15.5,75.5C 15.6596,73.847 16.3263,72.5137 17.5,71.5 Z"/></g>
<g><path style="opacity:1" fill="#0c1a32" d="M 275.5,57.5 C 275.66,59.153 276.326,60.4863 277.5,61.5C 278.902,64.2091 280.236,67.0424 281.5,70C 283.154,70.1961 284.154,69.3628 284.5,67.5C 285.167,67.5 285.833,67.5 286.5,67.5C 283.225,73.1323 284.892,76.1323 291.5,76.5C 290.192,79.7302 289.192,83.0636 288.5,86.5C 286.903,88.6043 284.737,89.9376 282,90.5C 279.992,90.6932 278.492,90.0265 277.5,88.5C 275.207,84.71 273.207,80.71 271.5,76.5C 271.5,75.8333 271.167,75.5 270.5,75.5C 269.795,72.6458 268.795,69.9791 267.5,67.5C 267.682,65.4086 267.348,63.4086 266.5,61.5C 268.401,60.7691 270.401,60.7691 272.5,61.5C 272.337,59.1432 272.503,56.8098 273,54.5C 273.333,55.8333 273.667,57.1667 274,58.5C 274.383,57.944 274.883,57.6107 275.5,57.5 Z"/></g>
<g><path style="opacity:1" fill="#081322" d="M 317.5,89.5 C 315.497,91.9819 312.831,92.9819 309.5,92.5C 308.833,91.1667 307.833,90.1667 306.5,89.5C 306.443,88.391 306.11,87.391 305.5,86.5C 305.5,79.8333 305.5,73.1667 305.5,66.5C 306.317,68.9686 306.817,71.6353 307,74.5C 308.53,76.2262 309.53,78.2262 310,80.5C 311.154,79.2567 312.488,78.2567 314,77.5C 314.499,71.8431 314.666,66.1764 314.5,60.5C 315.117,60.3893 315.617,60.056 316,59.5C 316.333,57.1667 316.667,54.8333 317,52.5C 317.5,64.8288 317.667,77.1622 317.5,89.5 Z"/></g>
<g><path style="opacity:1" fill="#eeeff0" d="M 61.5,65.5 C 62.3439,69.0991 62.6773,72.7657 62.5,76.5C 61.3995,77.6049 60.7329,78.9382 60.5,80.5C 59.5987,81.2905 58.9321,82.2905 58.5,83.5C 57.0937,83.9731 56.427,84.9731 56.5,86.5C 56.5,86.8333 56.5,87.1667 56.5,87.5C 55.7326,88.172 55.0659,89.0053 54.5,90C 49.1387,90.6086 43.8054,90.4419 38.5,89.5C 36.8984,87.9261 34.8984,87.2594 32.5,87.5C 30.9724,86.6908 29.3057,86.0241 27.5,85.5C 24.0635,83.9233 23.5635,81.5899 26,78.5C 26.6708,77.7476 27.5041,77.4142 28.5,77.5C 31.8409,75.479 34.8409,73.1457 37.5,70.5C 41.5627,68.1384 45.896,66.305 50.5,65C 54.2554,64.2446 57.9221,64.4113 61.5,65.5 Z"/></g>
<g><path style="opacity:1" fill="#d9dcde" d="M 74.5,74.5 C 75.6774,77.3517 77.0107,80.0184 78.5,82.5C 78.5,82.8333 78.5,83.1667 78.5,83.5C 76.0128,84.3228 73.6794,85.3228 71.5,86.5C 69.8212,86.7148 68.8212,86.0481 68.5,84.5C 68.7329,82.9382 69.3995,81.6049 70.5,80.5C 70.9887,79.0048 71.6554,77.6715 72.5,76.5C 73.1667,75.8333 73.8333,75.1667 74.5,74.5 Z"/></g>
<g><path style="opacity:1" fill="#1b4262" d="M 96.5,66.5 C 96.179,67.8175 95.8457,69.1508 95.5,70.5C 95.8763,72.8034 96.8763,73.1368 98.5,71.5C 96.3115,75.2071 93.6448,78.5405 90.5,81.5C 89.4324,80.5655 88.099,80.2322 86.5,80.5C 88.9722,78.2383 90.9722,75.5716 92.5,72.5C 93.6566,70.322 94.9899,68.322 96.5,66.5 Z"/></g>
<g><path style="opacity:1" fill="#e7e8e9" d="M 102.5,51.5 C 102.833,51.5 103.167,51.5 103.5,51.5C 103.5,54.8333 103.5,58.1667 103.5,61.5C 107.5,61.5 111.5,61.5 115.5,61.5C 115.5,66.1667 115.5,70.8333 115.5,75.5C 111.5,75.5 107.5,75.5 103.5,75.5C 103.5,79.5 103.5,83.5 103.5,87.5C 98.8333,87.5 94.1667,87.5 89.5,87.5C 89.7373,86.209 89.404,85.209 88.5,84.5C 88.9321,83.2905 89.5987,82.2905 90.5,81.5C 93.6448,78.5405 96.3115,75.2071 98.5,71.5C 98.9321,70.2905 99.5987,69.2905 100.5,68.5C 101.924,66.4855 102.59,64.1522 102.5,61.5C 102.5,58.1667 102.5,54.8333 102.5,51.5 Z"/></g>
<g><path style="opacity:1" fill="#fdfdfd" d="M 270.5,75.5 C 271.167,75.5 271.5,75.8333 271.5,76.5C 272.463,80.1007 273.13,83.7674 273.5,87.5C 269.5,87.5 265.5,87.5 261.5,87.5C 261.5,83.5 261.5,79.5 261.5,75.5C 264.5,75.5 267.5,75.5 270.5,75.5 Z"/></g>
<g><path style="opacity:1" fill="#758390" d="M 294.5,73.5 C 294.5,74.1667 294.5,74.8333 294.5,75.5C 293.833,75.8333 293.167,76.1667 292.5,76.5C 292.427,74.9731 293.094,73.9731 294.5,73.5 Z"/></g>
<g><path style="opacity:1" fill="#e6e7e9" d="M 303.5,56.5 C 304.167,66.5 304.833,76.5 305.5,86.5C 306.11,87.391 306.443,88.391 306.5,89.5C 304.412,88.0605 302.079,87.3939 299.5,87.5C 299.5,83.5 299.5,79.5 299.5,75.5C 297.833,75.5 296.167,75.5 294.5,75.5C 294.5,74.8333 294.5,74.1667 294.5,73.5C 297.264,67.6358 300.264,61.9691 303.5,56.5 Z"/></g>
<g><path style="opacity:1" fill="#424958" d="M 305.5,57.5 C 305.5,60.5 305.5,63.5 305.5,66.5C 305.5,73.1667 305.5,79.8333 305.5,86.5C 304.833,76.5 304.167,66.5 303.5,56.5C 304.988,53.8136 305.655,54.1469 305.5,57.5 Z"/></g>
<g><path style="opacity:1" fill="#bdc2c8" d="M 37.5,70.5 C 34.8409,73.1457 31.8409,75.479 28.5,77.5C 30.6367,74.027 33.6367,71.6936 37.5,70.5 Z"/></g>
<g><path style="opacity:1" fill="#091531" d="M 135.5,66.5 C 135.5,66.8333 135.5,67.1667 135.5,67.5C 135.5,75.1667 135.5,82.8333 135.5,90.5C 134.833,90.8333 134.167,91.1667 133.5,91.5C 132.167,91.5 130.833,91.5 129.5,91.5C 127.589,90.925 125.922,89.925 124.5,88.5C 124.5,87.8333 124.5,87.1667 124.5,86.5C 124.5,84.8333 124.5,83.1667 124.5,81.5C 125.314,79.369 125.814,77.0356 126,74.5C 128.148,73.0226 129.482,71.0226 130,68.5C 130.414,68.9574 130.914,69.2907 131.5,69.5C 132.852,68.4756 134.185,67.4756 135.5,66.5 Z"/></g>
<g><path style="opacity:1" fill="#9196a0" d="M 135.5,67.5 C 145.348,67.1729 155.014,67.5062 164.5,68.5C 156.833,68.5 149.167,68.5 141.5,68.5C 139.833,68.5 138.167,68.5 136.5,68.5C 136.825,76.0191 136.492,83.3524 135.5,90.5C 135.5,82.8333 135.5,75.1667 135.5,67.5 Z"/></g>
<g><path style="opacity:1" fill="#717a85" d="M 177.5,41.5 C 177.667,58.5033 177.5,75.5033 177,92.5C 174.395,93.8143 171.895,93.8143 169.5,92.5C 171.792,92.7564 173.959,92.4231 176,91.5C 176.5,83.5069 176.666,75.5069 176.5,67.5C 176.5,65.1667 176.5,62.8333 176.5,60.5C 176.5,55.1667 176.5,49.8333 176.5,44.5C 176.263,43.209 176.596,42.209 177.5,41.5 Z"/></g>
<g><path style="opacity:1" fill="#7a8089" d="M 10.5,78.5 C 11.8333,79.5 13.1667,80.5 14.5,81.5C 15.1667,82.5 15.8333,83.5 16.5,84.5C 13.5,83.5 11.5,81.5 10.5,78.5 Z"/></g>
<g><path style="opacity:1" fill="#45697e" d="M 92.5,72.5 C 90.9722,75.5716 88.9722,78.2383 86.5,80.5C 83.8382,81.4986 81.1716,82.4986 78.5,83.5C 78.5,83.1667 78.5,82.8333 78.5,82.5C 83.4451,79.5547 88.1117,76.2214 92.5,72.5 Z"/></g>
<g><path style="opacity:1" fill="#051531" d="M 72.5,76.5 C 71.6554,77.6715 70.9887,79.0048 70.5,80.5C 69.7354,80.0766 68.9021,79.7432 68,79.5C 66.5212,80.756 64.8546,81.756 63,82.5C 61.6244,82.3158 60.7911,81.6491 60.5,80.5C 62.8586,78.2522 65.6919,76.9189 69,76.5C 69.7805,75.0563 69.6139,73.723 68.5,72.5C 67.8076,73.0253 67.3076,73.6919 67,74.5C 66.8333,74 66.6667,73.5 66.5,73C 68.0128,71.1208 68.6795,68.9541 68.5,66.5C 70.451,66.2267 71.951,66.8934 73,68.5C 72.9167,71.1194 72.75,73.786 72.5,76.5 Z"/></g>
<g><path style="opacity:1" fill="#5c6372" d="M 345.5,81.5 C 357.838,81.3335 370.171,81.5001 382.5,82C 383.406,83.6995 383.739,85.5328 383.5,87.5C 383.011,88.9952 382.345,90.3285 381.5,91.5C 381.5,88.5 381.5,85.5 381.5,82.5C 369.322,82.8284 357.322,82.4951 345.5,81.5 Z"/></g>
<g><path style="opacity:1" fill="#050e1d" d="M 450.5,51.5 C 450.833,51.5 451.167,51.5 451.5,51.5C 453.174,64.2192 449.84,75.2192 441.5,84.5C 438.291,86.2651 435.291,88.2651 432.5,90.5C 432.167,90.5 431.833,90.5 431.5,90.5C 428.99,90.9267 426.657,91.5933 424.5,92.5C 415.318,92.8266 406.318,92.4933 397.5,91.5C 396.265,86.1868 396.265,80.8534 397.5,75.5C 400.95,70.934 403.617,65.934 405.5,60.5C 406.192,61.0253 406.692,61.6919 407,62.5C 407.172,69.0133 407.672,75.3466 408.5,81.5C 414.678,82.8174 421.012,82.8174 427.5,81.5C 430.583,80.418 432.583,78.418 433.5,75.5C 435.43,75.2294 436.764,74.2294 437.5,72.5C 439.793,70.3875 442.293,68.3875 445,66.5C 446.809,62.1766 447.976,57.6766 448.5,53C 448.836,51.9701 449.503,51.4701 450.5,51.5 Z"/></g>
<g><path style="opacity:1" fill="#222c3d" d="M 433.5,75.5 C 432.583,78.418 430.583,80.418 427.5,81.5C 421.012,82.8174 414.678,82.8174 408.5,81.5C 414.545,81.5717 420.545,81.0717 426.5,80C 428.979,78.6796 431.313,77.1796 433.5,75.5 Z"/></g>
<g><path style="opacity:1" fill="#4d5969" d="M 437.5,70.5 C 437.5,71.1667 437.5,71.8333 437.5,72.5C 436.764,74.2294 435.43,75.2294 433.5,75.5C 434.604,73.6115 435.937,71.9448 437.5,70.5 Z"/></g>
<g><path style="opacity:1" fill="#070f1f" d="M 344.5,67.5 C 344.181,72.3633 344.514,77.03 345.5,81.5C 357.322,82.4951 369.322,82.8284 381.5,82.5C 381.5,85.5 381.5,88.5 381.5,91.5C 366.5,92.8333 351.5,92.8333 336.5,91.5C 336.167,91.5 335.833,91.5 335.5,91.5C 334.766,90.2921 334.433,88.9587 334.5,87.5C 334.5,86.8333 334.5,86.1667 334.5,85.5C 335.458,85.9528 336.292,86.6195 337,87.5C 338,86.8333 339,86.1667 340,85.5C 341.895,79.5423 343.395,73.5423 344.5,67.5 Z"/></g>
<g><path style="opacity:1" fill="#040e1d" d="M 176.5,67.5 C 176.666,75.5069 176.5,83.5069 176,91.5C 173.959,92.4231 171.792,92.7564 169.5,92.5C 168.833,91.1667 167.833,90.1667 166.5,89.5C 166.334,84.1563 166.501,78.8229 167,73.5C 168.32,73.201 169.82,73.0343 171.5,73C 172.851,70.7355 174.517,68.9022 176.5,67.5 Z"/></g>
<g><path style="opacity:1" fill="#b7babd" d="M 441.5,84.5 C 441.5,85.5 441.5,86.5 441.5,87.5C 438.619,88.6827 435.619,89.6827 432.5,90.5C 435.291,88.2651 438.291,86.2651 441.5,84.5 Z"/></g>
<g><path style="opacity:1" fill="#f8f8f8" d="M -0.5,75.5 C 2.16667,75.5 4.83333,75.5 7.5,75.5C 7.5,76.5 7.5,77.5 7.5,78.5C 8.5,78.5 9.5,78.5 10.5,78.5C 11.5,81.5 13.5,83.5 16.5,84.5C 18.5496,86.5475 20.883,88.2141 23.5,89.5C 24.3597,93.4338 24.693,97.4338 24.5,101.5C 28.5,101.5 32.5,101.5 36.5,101.5C 36.5,105.833 36.5,110.167 36.5,114.5C 32.5,114.5 28.5,114.5 24.5,114.5C 24.5,118.833 24.5,123.167 24.5,127.5C 19.8333,127.5 15.1667,127.5 10.5,127.5C 10.5,123.167 10.5,118.833 10.5,114.5C 6.83333,114.5 3.16667,114.5 -0.5,114.5C -0.5,101.5 -0.5,88.5 -0.5,75.5 Z"/></g>
<g><path style="opacity:1" fill="#fafafb" d="M 115.5,75.5 C 115.5,79.5 115.5,83.5 115.5,87.5C 118.609,87.2641 121.609,87.5975 124.5,88.5C 125.922,89.925 127.589,90.925 129.5,91.5C 129.5,92.1667 129.5,92.8333 129.5,93.5C 129.5,94.5 129.5,95.5 129.5,96.5C 128.5,96.5 127.5,96.5 126.5,96.5C 126.421,97.9305 126.754,99.2638 127.5,100.5C 123.555,101.491 119.555,101.824 115.5,101.5C 115.5,105.833 115.5,110.167 115.5,114.5C 111.5,114.5 107.5,114.5 103.5,114.5C 103.5,110.167 103.5,105.833 103.5,101.5C 98.8333,101.5 94.1667,101.5 89.5,101.5C 89.5,97.1667 89.5,92.8333 89.5,88.5C 88.1266,88.6567 86.7932,88.49 85.5,88C 86.7101,86.9609 87.7101,85.7942 88.5,84.5C 89.404,85.209 89.7373,86.209 89.5,87.5C 94.1667,87.5 98.8333,87.5 103.5,87.5C 103.5,83.5 103.5,79.5 103.5,75.5C 107.5,75.5 111.5,75.5 115.5,75.5 Z"/></g>
<g><path style="opacity:1" fill="#e5eaed" d="M 222.5,66.5 C 220.818,73.7144 220.152,81.0477 220.5,88.5C 220.5,92.8333 220.5,97.1667 220.5,101.5C 225.167,101.5 229.833,101.5 234.5,101.5C 234.5,103.833 234.5,106.167 234.5,108.5C 230.802,108.448 227.135,108.114 223.5,107.5C 215.259,106.209 206.926,104.709 198.5,103C 188.022,102.065 177.689,101.231 167.5,100.5C 172.5,100.5 177.5,100.5 182.5,100.5C 182.5,96.5 182.5,92.5 182.5,88.5C 186.5,88.5 190.5,88.5 194.5,88.5C 194.5,92.8333 194.5,97.1667 194.5,101.5C 199.167,101.5 203.833,101.5 208.5,101.5C 208.5,97.8333 208.5,94.1667 208.5,90.5C 211.572,92.6982 214.905,93.0315 218.5,91.5C 219.262,83.4899 219.928,75.4899 220.5,67.5C 221.167,67.1667 221.833,66.8333 222.5,66.5 Z"/></g>
<g><path style="opacity:1" fill="#e6e7e8" d="M 267.5,67.5 C 268.795,69.9791 269.795,72.6458 270.5,75.5C 267.5,75.5 264.5,75.5 261.5,75.5C 261.5,79.5 261.5,83.5 261.5,87.5C 265.5,87.5 269.5,87.5 273.5,87.5C 273.13,83.7674 272.463,80.1007 271.5,76.5C 273.207,80.71 275.207,84.71 277.5,88.5C 276.167,88.5 274.833,88.5 273.5,88.5C 273.5,92.8333 273.5,97.1667 273.5,101.5C 269.167,101.5 264.833,101.5 260.5,101.5C 260.665,98.1501 260.498,94.8168 260,91.5C 258.636,92.6961 257.136,93.6961 255.5,94.5C 254.584,94.4573 253.917,94.1239 253.5,93.5C 254.791,93.7373 255.791,93.404 256.5,92.5C 258.229,91.7638 259.229,90.4305 259.5,88.5C 260.167,77.6593 260.833,66.6593 261.5,55.5C 264.018,59.3198 266.018,63.3198 267.5,67.5 Z"/></g>
<g><path style="opacity:1" fill="#e8e9eb" d="M 381.5,41.5 C 381.813,37.9581 381.479,34.6248 380.5,31.5C 365.672,30.3389 350.672,30.1723 335.5,31C 334.944,31.3826 334.611,31.8826 334.5,32.5C 333.168,41.3081 332.502,50.4748 332.5,60C 332.5,69.3395 332.834,78.5062 333.5,87.5C 333.833,87.5 334.167,87.5 334.5,87.5C 334.433,88.9587 334.766,90.2921 335.5,91.5C 334.078,91.2504 333.078,90.417 332.5,89C 330.19,88.5034 327.857,88.3367 325.5,88.5C 325.5,92.8333 325.5,97.1667 325.5,101.5C 321.5,101.5 317.5,101.5 313.5,101.5C 313.5,99.1667 313.5,96.8333 313.5,94.5C 311.62,94.7709 310.287,94.1042 309.5,92.5C 312.831,92.9819 315.497,91.9819 317.5,89.5C 318.338,89.1583 318.672,88.4916 318.5,87.5C 320.833,87.5 323.167,87.5 325.5,87.5C 325.5,83.5 325.5,79.5 325.5,75.5C 327.5,75.5 329.5,75.5 331.5,75.5C 331.5,62.1667 331.5,48.8333 331.5,35.5C 329.5,35.5 327.5,35.5 325.5,35.5C 325.5,31.5 325.5,27.5 325.5,23.5C 330.167,23.5 334.833,23.5 339.5,23.5C 339.5,25.1667 339.5,26.8333 339.5,28.5C 343.833,28.5 348.167,28.5 352.5,28.5C 352.5,26.8333 352.5,25.1667 352.5,23.5C 356.833,23.5 361.167,23.5 365.5,23.5C 365.5,25.1667 365.5,26.8333 365.5,28.5C 369.833,28.5 374.167,28.5 378.5,28.5C 378.5,26.8333 378.5,25.1667 378.5,23.5C 382.833,23.5 387.167,23.5 391.5,23.5C 391.5,27.5 391.5,31.5 391.5,35.5C 388.833,35.5 386.167,35.5 383.5,35.5C 383.946,38.0101 383.28,40.0101 381.5,41.5 Z"/></g>
<g><path style="opacity:1" fill="#05326c" d="M 379.5,32.5 C 379.5,33.8333 379.5,35.1667 379.5,36.5C 367.278,36.3619 355.278,37.6953 343.5,40.5C 344.348,38.9069 345.681,37.7403 347.5,37C 345.956,36.7104 344.623,36.0437 343.5,35C 355.418,33.393 367.418,32.5597 379.5,32.5 Z"/></g>
<g><path style="opacity:1" fill="#5b7ba1" d="M 380.5,31.5 C 380.167,31.5 379.833,31.5 379.5,31.5C 365.163,31.3334 350.829,31.5001 336.5,32C 335.663,33.0113 335.33,34.1779 335.5,35.5C 334.833,36.1667 334.167,36.8333 333.5,37.5C 333.366,35.7085 333.699,34.0418 334.5,32.5C 334.611,31.8826 334.944,31.3826 335.5,31C 350.672,30.1723 365.672,30.3389 380.5,31.5 Z"/></g>
<g><path style="opacity:1" fill="#0e1625" d="M 61.5,60.5 C 62.4511,61.9187 62.7845,63.5853 62.5,65.5C 62.1667,65.5 61.8333,65.5 61.5,65.5C 57.9221,64.4113 54.2554,64.2446 50.5,65C 45.896,66.305 41.5627,68.1384 37.5,70.5C 33.6367,71.6936 30.6367,74.027 28.5,77.5C 27.5041,77.4142 26.6708,77.7476 26,78.5C 23.5635,81.5899 24.0635,83.9233 27.5,85.5C 27.5394,86.5832 27.8728,87.5832 28.5,88.5C 30.6565,89.7904 32.9899,90.6237 35.5,91C 44.5531,91.846 53.5531,91.5127 62.5,90C 59.9488,89.9977 57.9488,89.1644 56.5,87.5C 56.5,87.1667 56.5,86.8333 56.5,86.5C 57.9063,86.0269 58.573,85.0269 58.5,83.5C 58.9321,82.2905 59.5987,81.2905 60.5,80.5C 60.7911,81.6491 61.6244,82.3158 63,82.5C 64.8546,81.756 66.5212,80.756 68,79.5C 68.9021,79.7432 69.7354,80.0766 70.5,80.5C 69.3995,81.6049 68.7329,82.9382 68.5,84.5C 66.9122,85.6353 66.5788,86.9686 67.5,88.5C 69.0255,88.0057 70.3588,87.339 71.5,86.5C 73.6794,85.3228 76.0128,84.3228 78.5,83.5C 81.1716,82.4986 83.8382,81.4986 86.5,80.5C 88.099,80.2322 89.4324,80.5655 90.5,81.5C 89.5987,82.2905 88.9321,83.2905 88.5,84.5C 86.5887,85.075 84.922,86.075 83.5,87.5C 80.0657,89.7525 76.399,91.4192 72.5,92.5C 69.5049,92.2938 66.8383,92.9605 64.5,94.5C 54.0709,97.2491 43.7376,96.9157 33.5,93.5C 32.0697,92.4625 30.403,91.7959 28.5,91.5C 26.7162,91.1075 25.0495,90.4408 23.5,89.5C 20.883,88.2141 18.5496,86.5475 16.5,84.5C 15.8333,83.5 15.1667,82.5 14.5,81.5C 16.1703,81.7512 17.6703,82.4178 19,83.5C 19.5079,81.0958 20.6745,80.4291 22.5,81.5C 23.7388,79.9928 23.4054,78.8261 21.5,78C 24.6121,77.375 26.4454,75.5417 27,72.5C 27.3333,72.8333 27.6667,73.1667 28,73.5C 28.1858,71.0995 28.6858,68.7662 29.5,66.5C 31.2581,65.8721 32.7581,64.8721 34,63.5C 36.269,65.2687 38.6023,65.9353 41,65.5C 47.2874,61.6069 54.1208,59.9403 61.5,60.5 Z"/></g>
<g><path style="opacity:1" fill="#223245" d="M 27.5,85.5 C 29.3057,86.0241 30.9724,86.6908 32.5,87.5C 34.1016,89.0739 36.1016,89.7406 38.5,89.5C 43.8054,90.4419 49.1387,90.6086 54.5,90C 55.0659,89.0053 55.7326,88.172 56.5,87.5C 57.9488,89.1644 59.9488,89.9977 62.5,90C 53.5531,91.5127 44.5531,91.846 35.5,91C 32.9899,90.6237 30.6565,89.7904 28.5,88.5C 27.8728,87.5832 27.5394,86.5832 27.5,85.5 Z"/></g>
<g><path style="opacity:1" fill="#87939f" d="M 32.5,87.5 C 34.8984,87.2594 36.8984,87.9261 38.5,89.5C 36.1016,89.7406 34.1016,89.0739 32.5,87.5 Z"/></g>
<g><path style="opacity:1" fill="#5e6571" d="M 68.5,84.5 C 68.8212,86.0481 69.8212,86.7148 71.5,86.5C 70.3588,87.339 69.0255,88.0057 67.5,88.5C 66.5788,86.9686 66.9122,85.6353 68.5,84.5 Z"/></g>
<g><path style="opacity:1" fill="#8a8d96" d="M 58.5,83.5 C 58.573,85.0269 57.9063,86.0269 56.5,86.5C 56.427,84.9731 57.0937,83.9731 58.5,83.5 Z"/></g>
<g><path style="opacity:1" fill="#adb0b2" d="M 83.5,87.5 C 80.8907,91.307 77.224,93.307 72.5,93.5C 72.5,93.1667 72.5,92.8333 72.5,92.5C 76.399,91.4192 80.0657,89.7525 83.5,87.5 Z"/></g>
<g><path style="opacity:1" fill="#898d95" d="M 166.5,89.5 C 167.833,90.1667 168.833,91.1667 169.5,92.5C 167.5,92.5 166.5,91.5 166.5,89.5 Z"/></g>
<g><path style="opacity:1" fill="#9ea1a6" d="M 431.5,90.5 C 431.167,91.1667 430.833,91.8333 430.5,92.5C 428.5,92.5 426.5,92.5 424.5,92.5C 426.657,91.5933 428.99,90.9267 431.5,90.5 Z"/></g>
<g><path style="opacity:1" fill="#f5f5f6" d="M 141.5,68.5 C 141.5,70.8333 141.5,73.1667 141.5,75.5C 140.167,75.5 138.833,75.5 137.5,75.5C 137.5,79.8333 137.5,84.1667 137.5,88.5C 138.833,88.5 140.167,88.5 141.5,88.5C 141.5,91.5 141.5,94.5 141.5,97.5C 144.059,97.1984 146.393,97.5318 148.5,98.5C 141.8,98.17 135.134,98.5033 128.5,99.5C 128.624,100.107 128.957,100.44 129.5,100.5C 131.716,103.444 134.716,105.111 138.5,105.5C 140.153,105.66 141.486,106.326 142.5,107.5C 142.5,109.833 142.5,112.167 142.5,114.5C 146.833,114.5 151.167,114.5 155.5,114.5C 155.5,113.5 155.5,112.5 155.5,111.5C 164.411,113.249 173.411,114.249 182.5,114.5C 182.5,118.833 182.5,123.167 182.5,127.5C 186.5,127.5 190.5,127.5 194.5,127.5C 194.5,123.833 194.5,120.167 194.5,116.5C 198.119,117.244 201.785,117.577 205.5,117.5C 214.278,119.667 223.278,121 232.5,121.5C 236.937,122.113 241.27,122.78 245.5,123.5C 250.598,124.957 255.931,125.624 261.5,125.5C 265.099,126.344 268.766,126.677 272.5,126.5C 272.5,126.833 272.5,127.167 272.5,127.5C 273.423,131.064 273.756,134.731 273.5,138.5C 182.167,138.5 90.8333,138.5 -0.5,138.5C -0.5,130.5 -0.5,122.5 -0.5,114.5C 3.16667,114.5 6.83333,114.5 10.5,114.5C 10.5,118.833 10.5,123.167 10.5,127.5C 15.1667,127.5 19.8333,127.5 24.5,127.5C 24.5,123.167 24.5,118.833 24.5,114.5C 28.5,114.5 32.5,114.5 36.5,114.5C 36.5,110.167 36.5,105.833 36.5,101.5C 32.5,101.5 28.5,101.5 24.5,101.5C 24.693,97.4338 24.3597,93.4338 23.5,89.5C 25.0495,90.4408 26.7162,91.1075 28.5,91.5C 29.6354,93.2132 31.302,93.8799 33.5,93.5C 43.7376,96.9157 54.0709,97.2491 64.5,94.5C 67.1667,94.1667 69.8333,93.8333 72.5,93.5C 77.224,93.307 80.8907,91.307 83.5,87.5C 84.922,86.075 86.5887,85.075 88.5,84.5C 87.7101,85.7942 86.7101,86.9609 85.5,88C 86.7932,88.49 88.1266,88.6567 89.5,88.5C 89.5,92.8333 89.5,97.1667 89.5,101.5C 94.1667,101.5 98.8333,101.5 103.5,101.5C 103.5,105.833 103.5,110.167 103.5,114.5C 107.5,114.5 111.5,114.5 115.5,114.5C 115.5,110.167 115.5,105.833 115.5,101.5C 119.555,101.824 123.555,101.491 127.5,100.5C 126.754,99.2638 126.421,97.9305 126.5,96.5C 127.5,96.5 128.5,96.5 129.5,96.5C 129.5,95.5 129.5,94.5 129.5,93.5C 131.483,93.8432 132.817,93.1765 133.5,91.5C 134.167,91.1667 134.833,90.8333 135.5,90.5C 136.492,83.3524 136.825,76.0191 136.5,68.5C 138.167,68.5 139.833,68.5 141.5,68.5 Z"/></g>
<g><path style="opacity:1" fill="#74787d" d="M 28.5,91.5 C 30.403,91.7959 32.0697,92.4625 33.5,93.5C 31.302,93.8799 29.6354,93.2132 28.5,91.5 Z"/></g>
<g><path style="opacity:1" fill="#9a9da6" d="M 129.5,91.5 C 130.833,91.5 132.167,91.5 133.5,91.5C 132.817,93.1765 131.483,93.8432 129.5,93.5C 129.5,92.8333 129.5,92.1667 129.5,91.5 Z"/></g>
<g><path style="opacity:1" fill="#757b84" d="M 251.5,91.5 C 253.117,92.038 254.784,92.3713 256.5,92.5C 255.791,93.404 254.791,93.7373 253.5,93.5C 252.5,93.1667 251.833,92.5 251.5,91.5 Z"/></g>
<g><path style="opacity:1" fill="#81858d" d="M 336.5,91.5 C 351.5,92.8333 366.5,92.8333 381.5,91.5C 381.027,92.9063 380.027,93.573 378.5,93.5C 365.5,93.5 352.5,93.5 339.5,93.5C 337.973,93.573 336.973,92.9063 336.5,91.5 Z"/></g>
<g><path style="opacity:1" fill="#656a75" d="M 72.5,92.5 C 72.5,92.8333 72.5,93.1667 72.5,93.5C 69.8333,93.8333 67.1667,94.1667 64.5,94.5C 66.8383,92.9605 69.5049,92.2938 72.5,92.5 Z"/></g>
<g><path style="opacity:1" fill="#a7d7ec" d="M 148.5,98.5 C 150.833,98.5 153.167,98.5 155.5,98.5C 159.337,98.9309 163.003,99.5975 166.5,100.5C 154.006,99.4016 141.672,99.4016 129.5,100.5C 128.957,100.44 128.624,100.107 128.5,99.5C 135.134,98.5033 141.8,98.17 148.5,98.5 Z"/></g>
<g><path style="opacity:1" fill="#34b1f0" d="M 166.5,100.5 C 166.833,100.5 167.167,100.5 167.5,100.5C 177.689,101.231 188.022,102.065 198.5,103C 206.926,104.709 215.259,106.209 223.5,107.5C 218.662,107.291 213.829,106.958 209,106.5C 206.177,106.675 203.51,107.342 201,108.5C 196.665,104.194 191.832,103.527 186.5,106.5C 183.483,105.325 180.483,105.325 177.5,106.5C 171.909,105.869 166.576,104.369 161.5,102C 158.5,101.833 155.5,101.667 152.5,101.5C 148.212,101.977 144.045,101.977 140,101.5C 137.628,102.317 137.128,103.65 138.5,105.5C 134.716,105.111 131.716,103.444 129.5,100.5C 141.672,99.4016 154.006,99.4016 166.5,100.5 Z"/></g>
<g><path style="opacity:1" fill="#f0f1f2" d="M 288.5,86.5 C 291.684,88.4136 295.351,89.0803 299.5,88.5C 299.5,92.8333 299.5,97.1667 299.5,101.5C 295.5,101.5 291.5,101.5 287.5,101.5C 287.5,105.833 287.5,110.167 287.5,114.5C 291.5,114.5 295.5,114.5 299.5,114.5C 299.5,115.5 299.5,116.5 299.5,117.5C 296.833,117.5 294.167,117.5 291.5,117.5C 283.552,116.127 275.552,115.127 267.5,114.5C 265.167,113.833 262.833,113.167 260.5,112.5C 264.857,112.586 269.19,112.92 273.5,113.5C 273.5,109.5 273.5,105.5 273.5,101.5C 273.5,97.1667 273.5,92.8333 273.5,88.5C 274.833,88.5 276.167,88.5 277.5,88.5C 278.492,90.0265 279.992,90.6932 282,90.5C 284.737,89.9376 286.903,88.6043 288.5,86.5 Z"/></g>
<g><path style="opacity:1" fill="#f8f8f8" d="M 294.5,75.5 C 296.167,75.5 297.833,75.5 299.5,75.5C 299.5,79.5 299.5,83.5 299.5,87.5C 302.079,87.3939 304.412,88.0605 306.5,89.5C 307.833,90.1667 308.833,91.1667 309.5,92.5C 310.287,94.1042 311.62,94.7709 313.5,94.5C 313.5,96.8333 313.5,99.1667 313.5,101.5C 317.5,101.5 321.5,101.5 325.5,101.5C 325.5,105.833 325.5,110.167 325.5,114.5C 330.167,114.5 334.833,114.5 339.5,114.5C 339.5,116.833 339.5,119.167 339.5,121.5C 334.833,121.5 330.167,121.5 325.5,121.5C 322.833,121.5 320.167,121.5 317.5,121.5C 311.359,120.76 305.359,119.427 299.5,117.5C 299.5,116.5 299.5,115.5 299.5,114.5C 295.5,114.5 291.5,114.5 287.5,114.5C 287.5,110.167 287.5,105.833 287.5,101.5C 291.5,101.5 295.5,101.5 299.5,101.5C 299.5,97.1667 299.5,92.8333 299.5,88.5C 295.351,89.0803 291.684,88.4136 288.5,86.5C 289.192,83.0636 290.192,79.7302 291.5,76.5C 291.833,76.5 292.167,76.5 292.5,76.5C 293.167,76.1667 293.833,75.8333 294.5,75.5 Z"/></g>
<g><path style="opacity:1" fill="#f6f6f6" d="M 335.5,91.5 C 335.833,91.5 336.167,91.5 336.5,91.5C 336.973,92.9063 337.973,93.573 339.5,93.5C 339.5,96.1667 339.5,98.8333 339.5,101.5C 343.5,101.5 347.5,101.5 351.5,101.5C 351.5,105.833 351.5,110.167 351.5,114.5C 347.5,114.5 343.5,114.5 339.5,114.5C 334.833,114.5 330.167,114.5 325.5,114.5C 325.5,110.167 325.5,105.833 325.5,101.5C 325.5,97.1667 325.5,92.8333 325.5,88.5C 327.857,88.3367 330.19,88.5034 332.5,89C 333.078,90.417 334.078,91.2504 335.5,91.5 Z"/></g>
<g><path style="opacity:1" fill="#f3f3f3" d="M 339.5,93.5 C 352.5,93.5 365.5,93.5 378.5,93.5C 378.5,96.1667 378.5,98.8333 378.5,101.5C 382.833,101.5 387.167,101.5 391.5,101.5C 391.797,105.767 391.464,109.934 390.5,114C 386.514,114.499 382.514,114.666 378.5,114.5C 378.5,116.5 378.5,118.5 378.5,120.5C 380.167,120.5 381.833,120.5 383.5,120.5C 378.833,121.167 374.167,121.833 369.5,122.5C 354.657,122.829 339.99,122.496 325.5,121.5C 330.167,121.5 334.833,121.5 339.5,121.5C 339.5,119.167 339.5,116.833 339.5,114.5C 343.5,114.5 347.5,114.5 351.5,114.5C 351.5,110.167 351.5,105.833 351.5,101.5C 347.5,101.5 343.5,101.5 339.5,101.5C 339.5,98.8333 339.5,96.1667 339.5,93.5 Z"/></g>
<g><path style="opacity:1" fill="#ededee" d="M 394.5,61.5 C 394.173,71.015 394.506,80.3483 395.5,89.5C 395.833,90.5 396.5,91.1667 397.5,91.5C 406.318,92.4933 415.318,92.8266 424.5,92.5C 426.5,92.5 428.5,92.5 430.5,92.5C 430.5,95.5 430.5,98.5 430.5,101.5C 435.167,101.5 439.833,101.5 444.5,101.5C 444.5,105.833 444.5,110.167 444.5,114.5C 439.833,114.5 435.167,114.5 430.5,114.5C 430.5,118.833 430.5,123.167 430.5,127.5C 426.5,127.5 422.5,127.5 418.5,127.5C 418.5,124.167 418.5,120.833 418.5,117.5C 417.5,117.5 416.5,117.5 415.5,117.5C 415.5,117.167 415.5,116.833 415.5,116.5C 416.167,116.167 416.833,115.833 417.5,115.5C 420.45,114.692 423.117,113.358 425.5,111.5C 429.143,110.68 432.143,108.847 434.5,106C 430.997,106.418 427.997,107.918 425.5,110.5C 421.201,111.728 416.868,112.894 412.5,114C 411.944,114.383 411.611,114.883 411.5,115.5C 409.435,115.517 407.435,115.85 405.5,116.5C 402.161,116.89 398.827,117.39 395.5,118C 394.944,118.383 394.611,118.883 394.5,119.5C 393.167,119.5 391.833,119.5 390.5,119.5C 391.968,118.221 392.635,116.554 392.5,114.5C 396.5,114.5 400.5,114.5 404.5,114.5C 404.5,110.167 404.5,105.833 404.5,101.5C 400.5,101.5 396.5,101.5 392.5,101.5C 392.85,87.9954 393.517,74.6621 394.5,61.5 Z"/></g>
<g><path style="opacity:1" fill="#0da4f9" d="M 223.5,107.5 C 227.135,108.114 230.802,108.448 234.5,108.5C 234.5,108.833 234.5,109.167 234.5,109.5C 230.123,109.054 225.956,109.721 222,111.5C 215.811,109.537 209.811,109.537 204,111.5C 199.469,110.785 194.969,109.785 190.5,108.5C 188.727,109.087 186.894,109.42 185,109.5C 173.249,107.618 161.416,106.785 149.5,107C 152.084,107.86 154.417,109.027 156.5,110.5C 151.649,109.998 146.983,108.998 142.5,107.5C 141.486,106.326 140.153,105.66 138.5,105.5C 137.128,103.65 137.628,102.317 140,101.5C 144.045,101.977 148.212,101.977 152.5,101.5C 155.5,101.667 158.5,101.833 161.5,102C 166.576,104.369 171.909,105.869 177.5,106.5C 180.483,105.325 183.483,105.325 186.5,106.5C 191.832,103.527 196.665,104.194 201,108.5C 203.51,107.342 206.177,106.675 209,106.5C 213.829,106.958 218.662,107.291 223.5,107.5 Z"/></g>
<g><path style="opacity:1" fill="#96a0ad" d="M 425.5,111.5 C 425.5,111.167 425.5,110.833 425.5,110.5C 427.997,107.918 430.997,106.418 434.5,106C 432.143,108.847 429.143,110.68 425.5,111.5 Z"/></g>
<g><path style="opacity:1" fill="#cbe0ee" d="M 234.5,109.5 C 234.5,109.167 234.5,108.833 234.5,108.5C 241.17,108.889 247.836,109.389 254.5,110C 256.611,110.845 258.611,111.678 260.5,112.5C 251.781,111.859 243.115,110.859 234.5,109.5 Z"/></g>
<g><path style="opacity:1" fill="#1496f5" d="M 234.5,109.5 C 243.115,110.859 251.781,111.859 260.5,112.5C 262.833,113.167 265.167,113.833 267.5,114.5C 254.537,114.93 241.87,113.596 229.5,110.5C 225.65,111.982 221.65,112.816 217.5,113C 218.902,114.342 218.569,115.176 216.5,115.5C 212.547,114.638 208.547,114.305 204.5,114.5C 200.599,113.921 197.432,112.921 195,111.5C 187.181,112.403 179.348,112.403 171.5,111.5C 166.507,111.084 161.507,110.751 156.5,110.5C 154.417,109.027 152.084,107.86 149.5,107C 161.416,106.785 173.249,107.618 185,109.5C 186.894,109.42 188.727,109.087 190.5,108.5C 194.969,109.785 199.469,110.785 204,111.5C 209.811,109.537 215.811,109.537 222,111.5C 225.956,109.721 230.123,109.054 234.5,109.5 Z"/></g>
<g><path style="opacity:1" fill="#3192e0" d="M 171.5,111.5 C 179.348,112.403 187.181,112.403 195,111.5C 197.432,112.921 200.599,113.921 204.5,114.5C 204.5,115.167 204.5,115.833 204.5,116.5C 193.287,115.351 182.287,113.685 171.5,111.5 Z"/></g>
<g><path style="opacity:1" fill="#e8ebef" d="M 142.5,107.5 C 146.983,108.998 151.649,109.998 156.5,110.5C 161.507,110.751 166.507,111.084 171.5,111.5C 182.287,113.685 193.287,115.351 204.5,116.5C 204.833,116.5 205.167,116.5 205.5,116.5C 205.5,116.833 205.5,117.167 205.5,117.5C 201.785,117.577 198.119,117.244 194.5,116.5C 194.5,120.167 194.5,123.833 194.5,127.5C 190.5,127.5 186.5,127.5 182.5,127.5C 182.5,123.167 182.5,118.833 182.5,114.5C 173.411,114.249 164.411,113.249 155.5,111.5C 155.5,112.5 155.5,113.5 155.5,114.5C 151.167,114.5 146.833,114.5 142.5,114.5C 142.5,112.167 142.5,109.833 142.5,107.5 Z"/></g>
<g><path style="opacity:1" fill="#5a6580" d="M 425.5,110.5 C 425.5,110.833 425.5,111.167 425.5,111.5C 423.117,113.358 420.45,114.692 417.5,115.5C 415.653,114.427 413.653,114.427 411.5,115.5C 411.611,114.883 411.944,114.383 412.5,114C 416.868,112.894 421.201,111.728 425.5,110.5 Z"/></g>
<g><path style="opacity:1" fill="#0788f3" d="M 267.5,114.5 C 267.611,115.117 267.944,115.617 268.5,116C 271.88,116.339 275.213,116.839 278.5,117.5C 273.222,117.676 267.889,119.01 262.5,121.5C 258.536,121.622 254.536,121.456 250.5,121C 251.942,121.377 252.942,122.21 253.5,123.5C 250.833,123.5 248.167,123.5 245.5,123.5C 241.27,122.78 236.937,122.113 232.5,121.5C 226.622,120.001 220.622,118.501 214.5,117C 211.518,116.502 208.518,116.335 205.5,116.5C 205.167,116.5 204.833,116.5 204.5,116.5C 204.5,115.833 204.5,115.167 204.5,114.5C 208.547,114.305 212.547,114.638 216.5,115.5C 218.569,115.176 218.902,114.342 217.5,113C 221.65,112.816 225.65,111.982 229.5,110.5C 241.87,113.596 254.537,114.93 267.5,114.5 Z"/></g>
<g><path style="opacity:1" fill="#4598e1" d="M 267.5,114.5 C 275.552,115.127 283.552,116.127 291.5,117.5C 291.5,117.833 291.5,118.167 291.5,118.5C 287.19,117.92 282.857,117.586 278.5,117.5C 275.213,116.839 271.88,116.339 268.5,116C 267.944,115.617 267.611,115.117 267.5,114.5 Z"/></g>
<g><path style="opacity:1" fill="#7a839b" d="M 405.5,116.5 C 404.5,117.167 403.5,117.833 402.5,118.5C 399.763,118.401 397.096,118.735 394.5,119.5C 394.611,118.883 394.944,118.383 395.5,118C 398.827,117.39 402.161,116.89 405.5,116.5 Z"/></g>
<g><path style="opacity:1" fill="#222c58" d="M 417.5,115.5 C 416.833,115.833 416.167,116.167 415.5,116.5C 413.597,116.796 411.93,117.463 410.5,118.5C 409.486,119.674 408.153,120.34 406.5,120.5C 405.833,120.5 405.167,120.5 404.5,120.5C 404.5,119.167 403.833,118.5 402.5,118.5C 403.5,117.833 404.5,117.167 405.5,116.5C 407.435,115.85 409.435,115.517 411.5,115.5C 413.653,114.427 415.653,114.427 417.5,115.5 Z"/></g>
<g><path style="opacity:1" fill="#80899e" d="M 415.5,116.5 C 415.5,116.833 415.5,117.167 415.5,117.5C 413.958,118.301 412.292,118.634 410.5,118.5C 411.93,117.463 413.597,116.796 415.5,116.5 Z"/></g>
<g><path style="opacity:1" fill="#428fd7" d="M 205.5,117.5 C 205.5,117.167 205.5,116.833 205.5,116.5C 208.518,116.335 211.518,116.502 214.5,117C 220.622,118.501 226.622,120.001 232.5,121.5C 223.278,121 214.278,119.667 205.5,117.5 Z"/></g>
<g><path style="opacity:1" fill="#b8d0e8" d="M 291.5,118.5 C 291.5,118.167 291.5,117.833 291.5,117.5C 294.167,117.5 296.833,117.5 299.5,117.5C 305.359,119.427 311.359,120.76 317.5,121.5C 314.5,121.5 311.5,121.5 308.5,121.5C 303.007,119.769 297.34,118.769 291.5,118.5 Z"/></g>
<g><path style="opacity:1" fill="#0a75df" d="M 278.5,117.5 C 282.857,117.586 287.19,117.92 291.5,118.5C 297.34,118.769 303.007,119.769 308.5,121.5C 312.167,122.167 315.833,122.833 319.5,123.5C 303.698,124.674 288.031,125.674 272.5,126.5C 268.766,126.677 265.099,126.344 261.5,125.5C 258.947,124.745 256.28,124.078 253.5,123.5C 252.942,122.21 251.942,121.377 250.5,121C 254.536,121.456 258.536,121.622 262.5,121.5C 267.889,119.01 273.222,117.676 278.5,117.5 Z"/></g>
<g><path style="opacity:1" fill="#678ec5" d="M 308.5,121.5 C 311.5,121.5 314.5,121.5 317.5,121.5C 320.167,121.5 322.833,121.5 325.5,121.5C 339.99,122.496 354.657,122.829 369.5,122.5C 369.5,122.833 369.5,123.167 369.5,123.5C 366.5,123.5 363.5,123.5 360.5,123.5C 346.833,123.5 333.167,123.5 319.5,123.5C 315.833,122.833 312.167,122.167 308.5,121.5 Z"/></g>
<g><path style="opacity:1" fill="#9fa5b4" d="M 404.5,120.5 C 405.167,120.5 405.833,120.5 406.5,120.5C 406.167,121.5 405.5,122.167 404.5,122.5C 401.885,123.291 399.218,123.957 396.5,124.5C 398.988,122.872 401.655,121.538 404.5,120.5 Z"/></g>
<g><path style="opacity:1" fill="#18225c" d="M 402.5,118.5 C 403.833,118.5 404.5,119.167 404.5,120.5C 401.655,121.538 398.988,122.872 396.5,124.5C 393.167,125.167 389.833,125.833 386.5,126.5C 384.139,126.674 381.806,127.007 379.5,127.5C 379.5,126.167 379.5,124.833 379.5,123.5C 376.167,123.5 372.833,123.5 369.5,123.5C 369.5,123.167 369.5,122.833 369.5,122.5C 374.167,121.833 378.833,121.167 383.5,120.5C 386.059,120.802 388.393,120.468 390.5,119.5C 391.833,119.5 393.167,119.5 394.5,119.5C 397.096,118.735 399.763,118.401 402.5,118.5 Z"/></g>
<g><path style="opacity:1" fill="#5b93d4" d="M 245.5,123.5 C 248.167,123.5 250.833,123.5 253.5,123.5C 256.28,124.078 258.947,124.745 261.5,125.5C 255.931,125.624 250.598,124.957 245.5,123.5 Z"/></g>
<g><path style="opacity:1" fill="#185ab6" d="M 319.5,123.5 C 333.167,123.5 346.833,123.5 360.5,123.5C 357.038,124.482 353.371,124.815 349.5,124.5C 339.223,125.859 328.889,126.526 318.5,126.5C 319.11,125.609 319.443,124.609 319.5,123.5 Z"/></g>
<g><path style="opacity:1" fill="#0659c4" d="M 319.5,123.5 C 319.443,124.609 319.11,125.609 318.5,126.5C 311.281,128.182 303.948,128.848 296.5,128.5C 293.833,128.5 291.167,128.5 288.5,128.5C 283.257,127.19 277.923,126.524 272.5,126.5C 288.031,125.674 303.698,124.674 319.5,123.5 Z"/></g>
<g><path style="opacity:1" fill="#7895c7" d="M 272.5,127.5 C 272.5,127.167 272.5,126.833 272.5,126.5C 277.923,126.524 283.257,127.19 288.5,128.5C 288.5,128.833 288.5,129.167 288.5,129.5C 283.167,128.833 277.833,128.167 272.5,127.5 Z"/></g>
<g><path style="opacity:1" fill="#eff0f1" d="M 404.5,122.5 C 404.5,124.167 404.5,125.833 404.5,127.5C 398.073,127.092 393.74,127.425 391.5,128.5C 391.5,131.833 391.5,135.167 391.5,138.5C 352.167,138.5 312.833,138.5 273.5,138.5C 273.756,134.731 273.423,131.064 272.5,127.5C 277.833,128.167 283.167,128.833 288.5,129.5C 292.81,130.08 297.143,130.414 301.5,130.5C 303.292,131.309 305.292,131.809 307.5,132C 323.672,132.828 339.672,132.661 355.5,131.5C 358.237,131.599 360.904,131.265 363.5,130.5C 367.842,130.261 372.176,129.927 376.5,129.5C 378.848,129.33 381.182,128.997 383.5,128.5C 385.03,128.36 386.03,127.693 386.5,126.5C 389.833,125.833 393.167,125.167 396.5,124.5C 399.218,123.957 401.885,123.291 404.5,122.5 Z"/></g>
<g><path style="opacity:1" fill="#0348ae" d="M 349.5,124.5 C 349.423,125.75 348.756,126.583 347.5,127C 335.391,128.632 323.391,129.798 311.5,130.5C 310.833,130.5 310.167,130.5 309.5,130.5C 306.833,130.5 304.167,130.5 301.5,130.5C 299.833,129.833 298.167,129.167 296.5,128.5C 303.948,128.848 311.281,128.182 318.5,126.5C 328.889,126.526 339.223,125.859 349.5,124.5 Z"/></g>
<g><path style="opacity:1" fill="#022c8f" d="M 360.5,123.5 C 363.5,123.5 366.5,123.5 369.5,123.5C 372.833,123.5 376.167,123.5 379.5,123.5C 379.5,124.833 379.5,126.167 379.5,127.5C 379.167,127.5 378.833,127.5 378.5,127.5C 371.788,127.504 365.121,127.671 358.5,128C 358.833,127.667 359.167,127.333 359.5,127C 358.167,126.833 356.833,126.667 355.5,126.5C 350.287,128.202 344.954,129.369 339.5,130C 330.173,130.5 320.839,130.666 311.5,130.5C 323.391,129.798 335.391,128.632 347.5,127C 348.756,126.583 349.423,125.75 349.5,124.5C 353.371,124.815 357.038,124.482 360.5,123.5 Z"/></g>
<g><path style="opacity:1" fill="#343b6a" d="M 376.5,128.5 C 376.5,128.833 376.5,129.167 376.5,129.5C 372.176,129.927 367.842,130.261 363.5,130.5C 363.918,129.778 364.584,129.278 365.5,129C 369.152,128.501 372.818,128.335 376.5,128.5 Z"/></g>
<g><path style="opacity:1" fill="#9094a9" d="M 386.5,126.5 C 386.03,127.693 385.03,128.36 383.5,128.5C 381.182,128.997 378.848,129.33 376.5,129.5C 376.5,129.167 376.5,128.833 376.5,128.5C 377.492,128.672 378.158,128.338 378.5,127.5C 378.833,127.5 379.167,127.5 379.5,127.5C 381.806,127.007 384.139,126.674 386.5,126.5 Z"/></g>
<g><path style="opacity:1" fill="#426bb1" d="M 288.5,129.5 C 288.5,129.167 288.5,128.833 288.5,128.5C 291.167,128.5 293.833,128.5 296.5,128.5C 298.167,129.167 299.833,129.833 301.5,130.5C 297.143,130.414 292.81,130.08 288.5,129.5 Z"/></g>
<g><path style="opacity:1" fill="#0b2476" d="M 378.5,127.5 C 378.158,128.338 377.492,128.672 376.5,128.5C 372.818,128.335 369.152,128.501 365.5,129C 364.584,129.278 363.918,129.778 363.5,130.5C 360.904,131.265 358.237,131.599 355.5,131.5C 339.991,131.83 324.658,131.496 309.5,130.5C 310.167,130.5 310.833,130.5 311.5,130.5C 320.839,130.666 330.173,130.5 339.5,130C 344.954,129.369 350.287,128.202 355.5,126.5C 356.833,126.667 358.167,126.833 359.5,127C 359.167,127.333 358.833,127.667 358.5,128C 365.121,127.671 371.788,127.504 378.5,127.5 Z"/></g>
<g><path style="opacity:1" fill="#556597" d="M 301.5,130.5 C 304.167,130.5 306.833,130.5 309.5,130.5C 324.658,131.496 339.991,131.83 355.5,131.5C 339.672,132.661 323.672,132.828 307.5,132C 305.292,131.809 303.292,131.309 301.5,130.5 Z"/></g>
</svg>
